<svg width="59" height="41" viewBox="0 0 59 41" fill="none" xmlns="http://www.w3.org/2000/svg">
<g clip-path="url(#clip0_177_20)">
<path d="M2.5 5.5L55.1367 0.171429L58.5 0V1.88571L50.9839 40.2857L0 38.5L2.5 5.5Z" fill="#111111"/>
<path d="M6 8L55.5 3L48.8488 36L4.5 35L6 8Z" fill="#0A17B6"/>
<g clip-path="url(#clip1_177_20)">
<path d="M30.3653 10.576C30.5349 10.4547 30.7333 10.38 30.9407 10.3594C31.1482 10.3387 31.3574 10.3729 31.5475 10.4584C31.7376 10.5439 31.902 10.6778 32.0242 10.8467C32.1464 11.0156 32.2221 11.2136 32.2438 11.421L32.2503 11.5445V28.4575C32.2504 28.6659 32.1958 28.8708 32.0919 29.0515C31.988 29.2323 31.8386 29.3827 31.6584 29.4876C31.4783 29.5925 31.2738 29.6483 31.0653 29.6495C30.8568 29.6507 30.6517 29.5971 30.4704 29.4942L30.3664 29.4271L23.237 24.3343H20.3337C19.787 24.3345 19.2605 24.128 18.8597 23.7563C18.4589 23.3847 18.2134 22.8752 18.1724 22.3301L18.167 22.1676V17.8343C18.1668 17.2877 18.3733 16.7612 18.7449 16.3604C19.1166 15.9596 19.6261 15.7141 20.1712 15.6731L20.3337 15.6676H23.237L30.3653 10.576ZM37.3062 14.3492C38.1014 15.0605 38.7375 15.9315 39.173 16.9054C39.6085 17.8793 39.8336 18.9341 39.8337 20.001C39.8336 21.0678 39.6085 22.1226 39.173 23.0965C38.7375 24.0704 38.1014 24.9414 37.3062 25.6527C37.2005 25.7492 37.0767 25.8237 36.942 25.872C36.8073 25.9204 36.6644 25.9415 36.5214 25.9343C36.3785 25.9271 36.2384 25.8916 36.1093 25.8299C35.9802 25.7682 35.8645 25.6816 35.7691 25.575C35.6736 25.4683 35.6002 25.3439 35.5531 25.2087C35.5061 25.0736 35.4862 24.9304 35.4948 24.7876C35.5033 24.6447 35.5401 24.505 35.603 24.3764C35.6659 24.2479 35.7536 24.133 35.8611 24.0386C36.4292 23.5305 36.8837 22.9082 37.1949 22.2125C37.5061 21.5167 37.667 20.7631 37.667 20.001C37.667 18.3976 36.9715 16.9568 35.8611 15.9634C35.7536 15.8689 35.6659 15.7541 35.603 15.6255C35.5401 15.497 35.5033 15.3572 35.4948 15.2144C35.4862 15.0715 35.5061 14.9284 35.5531 14.7932C35.6002 14.6581 35.6736 14.5336 35.7691 14.427C35.8645 14.3204 35.9802 14.2337 36.1093 14.172C36.2384 14.1104 36.3785 14.0749 36.5214 14.0677C36.6644 14.0604 36.8073 14.0816 36.942 14.1299C37.0767 14.1782 37.2005 14.2528 37.3062 14.3492ZM35.1396 16.7716C35.5937 17.1779 35.9571 17.6754 36.2059 18.2317C36.4548 18.788 36.5835 19.3905 36.5837 19.9999C36.5838 20.6097 36.4552 21.2126 36.2064 21.7693C35.9575 22.3259 35.594 22.8238 35.1396 23.2304C34.9341 23.4128 34.667 23.5104 34.3924 23.5034C34.1177 23.4963 33.856 23.3851 33.6602 23.1924C33.4644 22.9996 33.3491 22.7396 33.3378 22.4651C33.3264 22.1906 33.4198 21.922 33.5991 21.7137L33.6944 21.6162C34.1386 21.2176 34.417 20.6423 34.417 20.001C34.4172 19.4464 34.2047 18.9129 33.8233 18.5103L33.6944 18.3857C33.5869 18.2913 33.4992 18.1764 33.4363 18.0479C33.3734 17.9193 33.3367 17.7796 33.3281 17.6367C33.3196 17.4938 33.3394 17.3507 33.3865 17.2156C33.4335 17.0804 33.5069 16.9559 33.6024 16.8493C33.6978 16.7427 33.8135 16.656 33.9426 16.5944C34.0718 16.5327 34.2118 16.4972 34.3548 16.49C34.4977 16.4828 34.6406 16.5039 34.7753 16.5522C34.91 16.6006 35.0338 16.6751 35.1396 16.7716Z" fill="white"/>
</g>
</g>
<defs>
<clipPath id="clip0_177_20">
<rect width="59" height="41" fill="white"/>
</clipPath>
<clipPath id="clip1_177_20">
<rect width="26" height="26" fill="white" transform="translate(16 7)"/>
</clipPath>
</defs>
</svg>
