<svg width="59" height="41" viewBox="0 0 59 41" fill="none" xmlns="http://www.w3.org/2000/svg">
<g clip-path="url(#clip0_177_24)">
<path d="M2.5 5.5L55.1367 0.171429L58.5 0V1.88571L50.9839 40.2857L0 38.5L2.5 5.5Z" fill="#111111"/>
<path d="M6 8L55.5 3L48.8488 36L4.5 35L6 8Z" fill="#E60509"/>
<g clip-path="url(#clip1_177_24)">
<path d="M21.9793 15.6671L33.2503 26.9381V28.4569C33.2504 28.676 33.1901 28.8908 33.076 29.0778C32.9619 29.2648 32.7985 29.4168 32.6037 29.517C32.4089 29.6172 32.1903 29.6618 31.9718 29.6458C31.7533 29.6298 31.5435 29.554 31.3653 29.4265L24.237 24.3338H21.3337C20.759 24.3338 20.2079 24.1055 19.8016 23.6991C19.3953 23.2928 19.167 22.7417 19.167 22.1671V17.8338C19.167 17.2591 19.3953 16.708 19.8016 16.3017C20.2079 15.8954 20.759 15.6671 21.3337 15.6671H21.9793Z" fill="white"/>
<path d="M33.2503 11.5439V21.7186L39.1924 27.6607C39.3897 27.865 39.4989 28.1386 39.4965 28.4227C39.494 28.7067 39.3801 28.9784 39.1792 29.1793C38.9784 29.3802 38.7066 29.4941 38.4226 29.4966C38.1385 29.499 37.8649 29.3898 37.6606 29.1925L20.8082 12.3413C20.7048 12.2413 20.6222 12.1218 20.5655 11.9896C20.5087 11.8574 20.4788 11.7153 20.4776 11.5714C20.4763 11.4276 20.5037 11.2849 20.5582 11.1518C20.6127 11.0187 20.6931 10.8977 20.7948 10.796C20.8965 10.6943 21.0175 10.6138 21.1506 10.5594C21.2838 10.5049 21.4264 10.4775 21.5703 10.4787C21.7141 10.48 21.8563 10.5099 21.9884 10.5666C22.1206 10.6234 22.2401 10.7059 22.3401 10.8094L25.9649 14.4321L31.3664 10.5733C31.5446 10.446 31.7545 10.3704 31.9729 10.3547C32.1913 10.3389 32.4098 10.3836 32.6045 10.4839C32.7991 10.5842 32.9624 10.7362 33.0763 10.9232C33.1902 11.1102 33.2505 11.3249 33.2503 11.5439Z" fill="white"/>
</g>
</g>
<defs>
<clipPath id="clip0_177_24">
<rect width="59" height="41" fill="white"/>
</clipPath>
<clipPath id="clip1_177_24">
<rect width="26" height="26" fill="white" transform="translate(17 7)"/>
</clipPath>
</defs>
</svg>
