<svg width="59" height="41" viewBox="0 0 59 41" fill="none" xmlns="http://www.w3.org/2000/svg">
<g clip-path="url(#clip0_177_20)">
<path d="M2.5 5.5L55.1367 0.171429L58.5 0V1.88571L50.9839 40.2857L0 38.5L2.5 5.5Z" fill="#111111"/>
<path d="M6 8L55.5 3L48.8488 36L4.5 35L6 8Z" fill="#E60509"/>
<g clip-path="url(#clip1_177_20)">
<path d="M30.3653 10.575C30.5349 10.4537 30.7333 10.379 30.9407 10.3584C31.1482 10.3378 31.3574 10.3719 31.5475 10.4574C31.7376 10.5429 31.902 10.6768 32.0242 10.8458C32.1464 11.0147 32.2221 11.2127 32.2438 11.42L32.2503 11.5435V28.4565C32.2504 28.665 32.1958 28.8698 32.0919 29.0506C31.988 29.2313 31.8386 29.3817 31.6584 29.4866C31.4783 29.5915 31.2738 29.6474 31.0653 29.6485C30.8568 29.6497 30.6517 29.5962 30.4704 29.4932L30.3664 29.4261L23.237 24.3333H20.3337C19.787 24.3335 19.2605 24.1271 18.8597 23.7554C18.4589 23.3837 18.2134 22.8742 18.1724 22.3292L18.167 22.1667V17.8333C18.1668 17.2867 18.3733 16.7602 18.7449 16.3594C19.1166 15.9586 19.6261 15.7131 20.1712 15.6721L20.3337 15.6667H23.237L30.3653 10.575ZM37.3062 14.3482C38.1014 15.0595 38.7375 15.9306 39.173 16.9044C39.6085 17.8783 39.8336 18.9332 39.8337 20C39.8336 21.0668 39.6085 22.1217 39.173 23.0955C38.7375 24.0694 38.1014 24.9405 37.3062 25.6517C37.2005 25.7482 37.0767 25.8227 36.942 25.8711C36.8073 25.9194 36.6644 25.9405 36.5214 25.9333C36.3785 25.9261 36.2384 25.8906 36.1093 25.8289C35.9802 25.7672 35.8645 25.6806 35.7691 25.574C35.6736 25.4674 35.6002 25.3429 35.5531 25.2077C35.5061 25.0726 35.4862 24.9294 35.4948 24.7866C35.5033 24.6437 35.5401 24.504 35.603 24.3754C35.6659 24.2469 35.7536 24.132 35.8611 24.0376C36.4292 23.5295 36.8837 22.9073 37.1949 22.2115C37.5061 21.5158 37.667 20.7622 37.667 20C37.667 18.3967 36.9715 16.9558 35.8611 15.9624C35.7536 15.8679 35.6659 15.7531 35.603 15.6246C35.5401 15.496 35.5033 15.3562 35.4948 15.2134C35.4862 15.0705 35.5061 14.9274 35.5531 14.7923C35.6002 14.6571 35.6736 14.5326 35.7691 14.426C35.8645 14.3194 35.9802 14.2327 36.1093 14.1711C36.2384 14.1094 36.3785 14.0739 36.5214 14.0667C36.6644 14.0594 36.8073 14.0806 36.942 14.1289C37.0767 14.1773 37.2005 14.2518 37.3062 14.3482ZM35.1396 16.7706C35.5937 17.1769 35.9571 17.6744 36.2059 18.2307C36.4548 18.787 36.5835 19.3895 36.5837 19.9989C36.5838 20.6087 36.4552 21.2116 36.2064 21.7683C35.9575 22.325 35.594 22.8229 35.1396 23.2294C34.9341 23.4119 34.667 23.5094 34.3924 23.5024C34.1177 23.4953 33.856 23.3842 33.6602 23.1914C33.4644 22.9986 33.3491 22.7387 33.3378 22.4641C33.3264 22.1896 33.4198 21.921 33.5991 21.7127L33.6944 21.6152C34.1386 21.2166 34.417 20.6413 34.417 20C34.4172 19.4454 34.2047 18.9119 33.8233 18.5093L33.6944 18.3847C33.5869 18.2903 33.4992 18.1754 33.4363 18.0469C33.3734 17.9183 33.3367 17.7786 33.3281 17.6357C33.3196 17.4929 33.3394 17.3497 33.3865 17.2146C33.4335 17.0794 33.5069 16.955 33.6024 16.8483C33.6978 16.7417 33.8135 16.6551 33.9426 16.5934C34.0718 16.5317 34.2118 16.4962 34.3548 16.489C34.4977 16.4818 34.6406 16.5029 34.7753 16.5513C34.91 16.5996 35.0338 16.6741 35.1396 16.7706Z" fill="white"/>
</g>
</g>
<defs>
<clipPath id="clip0_177_20">
<rect width="59" height="41" fill="white"/>
</clipPath>
<clipPath id="clip1_177_20">
<rect width="26" height="26" fill="white" transform="translate(16 7)"/>
</clipPath>
</defs>
</svg>
