<?xml version="1.0" standalone="no"?>
<!DOCTYPE svg PUBLIC "-//W3C//DTD SVG 20010904//EN"
 "http://www.w3.org/TR/2001/REC-SVG-20010904/DTD/svg10.dtd">
<svg version="1.0" xmlns="http://www.w3.org/2000/svg"
 width="1080.000000pt" height="1080.000000pt" viewBox="0 0 1080.000000 1080.000000"
 preserveAspectRatio="xMidYMid meet">
<metadata>
Created by potrace 1.14, written by Peter Selinger 2001-2017
</metadata>
<g transform="translate(0.000000,1080.000000) scale(0.100000,-0.100000)"
fill="#000000" stroke="none">
<path d="M4850 10508 c0 -5 -4 -7 -8 -4 -11 7 -55 -52 -47 -64 3 -5 0 -12 -6
-16 -8 -5 -9 -3 -4 6 5 9 4 11 -3 6 -7 -4 -12 -12 -12 -17 0 -6 -6 -17 -12
-24 -33 -36 -43 -50 -41 -55 1 -3 -6 -15 -17 -27 -10 -12 -26 -36 -35 -52 -8
-17 -19 -31 -23 -31 -4 0 -13 -12 -19 -27 -7 -16 -17 -35 -22 -43 -26 -40 -60
-123 -54 -132 3 -6 2 -8 -4 -5 -6 4 -15 -5 -21 -18 -9 -19 -9 -25 0 -25 7 0 2
-7 -10 -16 -12 -8 -20 -20 -17 -25 4 -5 1 -9 -6 -9 -7 0 -9 -3 -6 -7 4 -3 2
-12 -4 -19 -6 -8 -9 -20 -6 -29 4 -8 0 -18 -7 -22 -10 -7 -26 -33 -30 -53 -1
-3 -7 -15 -14 -27 -10 -18 -10 -23 -1 -23 7 0 3 -10 -9 -23 -12 -12 -23 -34
-25 -47 -2 -13 -9 -26 -15 -28 -6 -2 -8 -10 -5 -18 3 -8 -2 -23 -12 -34 -9
-10 -14 -24 -9 -31 4 -7 3 -10 -2 -6 -6 3 -16 -3 -23 -15 -7 -11 -8 -17 -2
-14 7 4 8 1 5 -8 -3 -9 -10 -14 -14 -11 -4 3 -13 -8 -18 -24 -17 -48 -69 -79
-135 -82 -31 -1 -57 -7 -57 -12 0 -5 -6 -7 -12 -5 -7 3 -24 -6 -38 -19 -14
-13 -26 -19 -28 -14 -2 6 -13 6 -27 -1 -14 -6 -22 -14 -20 -19 3 -4 -3 -6 -12
-4 -10 1 -26 -4 -35 -12 -10 -9 -26 -13 -38 -10 -11 3 -18 2 -15 -2 2 -5 -7
-13 -21 -20 -32 -14 -37 -14 -29 2 4 6 -1 3 -9 -7 -22 -28 -40 -28 -53 0 -7
16 -8 24 -1 24 6 0 6 6 -1 14 -8 10 -9 21 -3 33 5 10 7 24 4 32 -2 8 0 11 6 7
5 -3 12 1 16 9 3 8 1 15 -5 15 -6 0 -6 7 1 20 6 11 7 20 3 20 -4 0 -1 5 7 10
8 5 15 13 15 17 2 31 17 83 25 83 4 0 6 9 3 20 -5 19 16 80 28 80 3 0 5 10 4
23 -1 12 5 30 13 40 11 12 12 17 2 17 -10 0 -10 3 0 15 10 12 10 15 -1 15 -9
1 -8 5 5 15 11 8 16 15 10 15 -5 0 -1 6 8 13 17 14 13 30 -10 34 -14 3 -53
-33 -44 -41 3 -3 -1 -6 -8 -6 -7 0 -11 -3 -7 -6 3 -3 -4 -16 -16 -28 -12 -11
-29 -34 -37 -49 -8 -16 -24 -40 -37 -53 -12 -13 -20 -24 -17 -24 5 0 -10 -19
-41 -52 -11 -11 -14 -18 -8 -14 9 5 11 2 7 -8 -3 -9 -11 -14 -17 -13 -6 1 -12
-4 -13 -10 -1 -7 -3 -16 -4 -20 -1 -5 -2 -11 -1 -15 0 -5 -4 -8 -9 -8 -6 0
-10 -7 -10 -15 0 -8 -5 -15 -11 -15 -5 0 -7 -5 -4 -10 3 -6 -1 -17 -9 -26 -9
-9 -14 -20 -11 -25 4 -5 1 -9 -4 -9 -6 0 -11 -7 -11 -15 0 -8 -5 -15 -10 -15
-6 0 -9 -3 -9 -7 3 -16 -23 -73 -34 -73 -6 0 -7 -3 -4 -7 4 -3 3 -11 -2 -17
-5 -6 -21 -33 -36 -61 -32 -58 -71 -102 -97 -111 -10 -3 -16 -9 -14 -13 3 -4
-11 -13 -30 -20 -19 -7 -32 -17 -29 -22 4 -5 -1 -9 -10 -9 -9 0 -13 -4 -10
-10 3 -5 -1 -10 -9 -10 -9 0 -16 -4 -16 -10 0 -5 -7 -10 -17 -10 -9 0 -14 -3
-10 -6 5 -6 -36 -47 -57 -55 -4 -2 -34 -28 -65 -57 -31 -29 -76 -67 -101 -84
-25 -18 -46 -35 -48 -40 -2 -4 -9 -8 -14 -8 -6 0 -18 -7 -27 -15 -9 -8 -26
-23 -38 -35 -13 -11 -28 -20 -34 -20 -5 0 -7 -4 -4 -10 3 -6 -4 -10 -16 -10
-12 0 -19 -3 -16 -7 6 -5 -11 -18 -51 -39 -8 -4 -34 -29 -59 -55 -25 -27 -54
-51 -64 -54 -11 -4 -18 -9 -16 -13 3 -7 -45 -59 -50 -54 -2 1 -3 1 -2 0 1 -2
-15 -20 -35 -42 -21 -21 -35 -40 -33 -43 3 -2 -10 -19 -29 -37 -19 -18 -34
-38 -34 -45 0 -6 -4 -11 -10 -11 -5 0 -10 -7 -10 -16 0 -8 -4 -12 -10 -9 -5 3
-10 1 -10 -5 0 -6 -11 -22 -25 -36 -13 -13 -25 -27 -25 -29 0 -3 0 -10 0 -16
0 -5 -4 -8 -8 -5 -5 3 -19 -13 -31 -35 -13 -22 -40 -60 -62 -85 -21 -25 -39
-50 -39 -55 0 -6 -4 -7 -10 -4 -6 3 -10 2 -10 -4 0 -5 -15 -27 -34 -47 -19
-21 -33 -40 -31 -43 4 -7 -16 -26 -30 -29 -5 -1 -10 -7 -10 -13 0 -6 -9 -17
-19 -25 -11 -8 -17 -14 -13 -14 4 0 -6 -13 -23 -30 -17 -16 -27 -30 -23 -30 4
0 1 -6 -7 -13 -8 -7 -21 -24 -29 -39 -8 -16 -18 -28 -23 -28 -4 0 -8 -6 -8
-13 0 -7 -13 -28 -29 -47 -15 -19 -31 -45 -35 -57 -4 -11 -13 -24 -21 -27 -8
-3 -15 -11 -15 -18 0 -7 -14 -28 -31 -47 -16 -19 -27 -41 -25 -48 3 -7 1 -13
-4 -13 -5 0 -20 -11 -34 -25 -14 -14 -23 -25 -21 -25 2 0 -11 -15 -28 -33 -18
-18 -35 -31 -39 -29 -11 4 -69 -89 -62 -99 3 -5 0 -9 -6 -9 -8 0 -10 -9 -6
-26 5 -20 3 -27 -13 -31 -12 -3 -19 -9 -16 -13 3 -5 1 -11 -5 -15 -5 -3 -10
-15 -10 -26 0 -11 -4 -18 -9 -15 -5 4 -7 -2 -4 -12 2 -11 -3 -26 -12 -36 -9
-9 -13 -16 -10 -16 4 0 0 -11 -9 -24 -8 -14 -17 -39 -18 -56 -1 -17 -10 -36
-19 -40 -11 -7 -15 -18 -11 -36 4 -20 2 -25 -8 -19 -8 5 -11 3 -8 -6 3 -8 1
-22 -4 -31 -6 -13 -5 -18 4 -18 10 -1 9 -4 -2 -13 -15 -12 -21 -27 -24 -57 0
-8 -5 -18 -9 -21 -4 -3 -9 -16 -10 -27 -1 -12 -6 -22 -12 -22 -5 0 -3 -5 5
-10 9 -6 10 -10 3 -10 -11 0 -29 -37 -25 -52 1 -5 -3 -8 -10 -8 -6 0 -9 -3 -6
-6 4 -3 0 -17 -8 -32 -8 -17 -10 -28 -3 -32 5 -4 1 -14 -11 -25 -11 -10 -17
-22 -14 -26 3 -5 0 -9 -5 -9 -6 0 -10 -3 -9 -7 2 -12 -12 -65 -24 -90 -6 -12
-8 -31 -5 -42 3 -12 2 -21 -1 -21 -8 0 -6 -86 2 -106 3 -8 1 -14 -4 -14 -5 0
-5 -13 0 -30 5 -17 5 -30 0 -30 -5 0 -5 -13 0 -30 6 -21 5 -30 -3 -30 -8 0 -7
-3 2 -9 9 -6 10 -10 2 -12 -15 -5 -22 -59 -8 -59 6 0 8 -3 4 -6 -3 -3 -2 -17
3 -30 6 -15 5 -26 -2 -30 -7 -5 -8 -2 -3 7 6 10 5 11 -3 4 -6 -5 -12 -21 -14
-35 -2 -14 -7 -31 -11 -37 -5 -8 -3 -13 4 -13 8 0 8 -4 -1 -15 -10 -12 -10
-15 0 -15 10 0 10 -3 0 -15 -9 -11 -9 -15 -1 -15 7 0 9 -5 4 -12 -11 -19 -12
-38 -2 -38 5 0 -1 -10 -12 -21 -16 -16 -18 -23 -9 -29 9 -6 9 -9 -1 -13 -11
-4 -11 -6 -1 -6 9 -1 10 -6 3 -19 -12 -22 -11 -82 1 -82 4 0 7 -3 7 -7 -3 -20
2 -34 10 -28 9 5 6 -33 -4 -62 -2 -7 1 -13 7 -13 6 0 5 -6 -3 -17 -8 -9 -9
-14 -2 -10 7 5 9 0 6 -13 -3 -10 -10 -18 -15 -17 -6 1 -12 -10 -15 -25 -2 -16
1 -28 7 -28 8 0 8 -6 0 -20 -11 -21 0 -43 57 -113 13 -16 21 -32 18 -37 -3 -5
4 -11 15 -15 13 -4 23 -18 27 -37 3 -16 12 -32 19 -35 16 -6 18 -51 4 -87 -5
-14 -6 -26 -1 -26 4 0 8 -7 8 -15 0 -8 -5 -15 -11 -15 -6 0 -5 -5 2 -12 7 -7
12 -29 12 -50 0 -27 4 -38 15 -38 11 0 12 -5 5 -26 -7 -16 -7 -23 0 -19 6 3
10 1 10 -4 0 -6 -4 -11 -10 -11 -5 0 -7 -6 -4 -14 7 -19 10 -106 4 -106 -3 0
-6 -9 -6 -20 0 -11 4 -20 9 -20 4 0 5 -5 2 -10 -3 -5 -1 -10 5 -10 6 0 9 -4 6
-9 -3 -5 5 -25 19 -45 14 -20 25 -41 25 -46 0 -6 5 -10 12 -10 6 0 8 -3 5 -7
-4 -3 3 -17 15 -30 12 -13 18 -23 14 -23 -4 0 2 -10 14 -22 11 -12 20 -28 20
-35 0 -7 5 -13 10 -13 6 0 10 -7 10 -15 0 -8 5 -15 11 -15 5 0 8 -4 4 -9 -3
-5 0 -13 6 -17 8 -4 7 -9 -2 -15 -10 -6 -10 -9 -2 -9 11 0 30 -64 25 -82 -1
-5 3 -8 9 -8 6 0 9 -6 6 -14 -3 -8 0 -22 8 -32 7 -10 11 -24 8 -31 -3 -7 2
-13 10 -13 12 0 14 -6 7 -29 -6 -23 -4 -33 11 -47 10 -9 16 -21 13 -26 -3 -5
1 -20 10 -33 9 -13 16 -35 16 -48 0 -14 7 -30 15 -37 8 -7 12 -16 9 -21 -3 -5
0 -9 5 -9 6 0 11 -7 11 -15 0 -8 5 -15 11 -15 5 0 8 -4 5 -8 -3 -5 6 -27 20
-51 13 -24 21 -47 18 -52 -3 -5 0 -9 6 -9 6 0 15 -10 20 -22 5 -13 18 -34 27
-48 10 -14 12 -21 5 -16 -11 7 -11 4 0 -13 7 -12 16 -21 21 -21 4 0 6 -4 3 -9
-3 -4 3 -16 14 -26 12 -11 16 -21 10 -25 -5 -3 3 -20 20 -39 17 -18 30 -39 30
-47 0 -8 7 -14 17 -14 9 0 13 -3 10 -7 -4 -3 3 -18 15 -31 13 -14 16 -22 8
-18 -9 5 -8 2 2 -7 10 -8 18 -20 18 -26 0 -7 5 -9 12 -5 7 4 8 3 4 -4 -4 -6 2
-20 14 -32 11 -11 21 -23 21 -27 1 -5 12 -22 25 -39 13 -17 24 -38 24 -47 0
-10 4 -17 9 -17 5 0 16 -12 26 -26 11 -18 13 -24 4 -19 -8 4 -3 -3 11 -16 14
-13 26 -31 28 -39 5 -22 65 -120 74 -120 4 0 5 -6 2 -13 -5 -13 48 -67 65 -67
6 0 14 -7 19 -16 5 -9 12 -16 15 -15 15 1 43 -14 58 -31 9 -10 20 -14 24 -10
5 4 5 1 1 -6 -5 -8 3 -18 22 -29 16 -9 38 -30 48 -45 11 -15 24 -28 31 -28 6
0 15 -9 18 -20 4 -11 11 -18 16 -15 5 4 9 3 9 -2 0 -8 27 -38 109 -116 27 -27
51 -52 53 -57 2 -5 10 -10 18 -12 8 -2 25 -13 37 -26 13 -12 27 -22 31 -22 4
0 23 -16 43 -35 20 -19 39 -31 43 -28 3 4 6 0 6 -7 0 -7 3 -10 6 -7 4 4 15 -3
25 -15 11 -11 19 -17 19 -12 0 5 5 1 11 -9 5 -9 17 -17 25 -17 8 0 12 -4 9
-10 -3 -6 0 -10 7 -10 17 -1 58 -35 58 -49 0 -6 6 -11 13 -11 7 0 33 -18 57
-40 25 -22 49 -40 53 -40 14 0 56 -54 57 -71 0 -9 7 -22 15 -29 11 -9 13 -15
5 -20 -8 -5 -8 -11 2 -21 18 -18 32 -50 29 -66 -1 -7 2 -13 7 -13 6 0 13 -16
16 -35 4 -19 10 -35 14 -35 4 0 8 -10 9 -21 1 -12 10 -30 19 -40 13 -15 14
-19 3 -19 -11 0 -11 -2 1 -10 8 -5 11 -10 5 -10 -5 0 -4 -4 4 -9 8 -5 15 -18
16 -29 1 -11 7 -28 15 -36 7 -9 10 -19 7 -23 -4 -3 2 -18 12 -32 21 -29 33
-81 19 -81 -5 0 -3 -10 4 -23 7 -12 12 -26 13 -30 0 -5 8 -14 17 -21 10 -7 15
-16 11 -19 -3 -4 -1 -7 5 -7 7 0 12 -7 12 -16 0 -8 4 -12 10 -9 5 3 10 -1 10
-9 0 -8 9 -18 21 -21 12 -4 18 -12 15 -21 -3 -8 1 -17 9 -20 8 -4 15 -15 15
-25 0 -10 5 -19 10 -19 6 0 10 -7 10 -15 0 -8 5 -15 11 -15 5 0 8 -4 4 -9 -3
-5 2 -16 11 -25 8 -9 12 -21 8 -27 -4 -7 -3 -9 3 -6 6 4 19 -13 29 -36 23 -53
33 -63 66 -69 21 -4 28 0 32 16 3 12 1 23 -4 24 -6 2 -8 8 -4 13 3 5 2 9 -3 9
-4 0 -9 15 -10 32 -2 18 -7 34 -13 36 -7 3 -7 8 1 18 8 10 8 14 0 14 -6 0 -11
6 -11 14 0 8 -5 18 -12 22 -7 5 -8 2 -3 -7 5 -8 4 -11 -1 -6 -4 4 -7 23 -6 41
2 21 -3 39 -13 50 -11 10 -12 16 -4 16 7 0 5 8 -7 22 -12 14 -14 18 -4 13 8
-4 5 3 -7 16 -15 17 -19 29 -13 39 5 9 5 17 -1 21 -6 3 -11 16 -12 27 -1 12
-5 22 -10 22 -5 0 -5 6 1 13 9 10 6 17 -8 30 -11 9 -20 29 -20 44 0 14 -7 35
-17 45 -9 10 -11 18 -5 18 13 0 4 29 -15 48 -7 7 -11 26 -9 42 2 16 -1 31 -7
33 -5 1 -11 12 -12 23 -1 10 -7 32 -14 47 -15 39 -14 42 14 45 14 1 25 -2 25
-6 0 -4 9 -13 21 -20 17 -11 20 -11 14 0 -3 7 2 3 13 -9 11 -13 25 -23 31 -23
6 0 29 -17 52 -37 23 -21 53 -48 67 -60 14 -13 38 -23 53 -23 16 0 29 -4 29
-8 0 -10 30 -9 48 2 8 4 12 1 12 -10 0 -10 3 -15 6 -11 3 3 16 2 29 -3 14 -5
26 -5 34 3 7 7 11 7 11 1 0 -13 42 -13 51 0 4 4 12 -6 20 -22 7 -17 17 -28 21
-26 4 3 8 0 8 -6 0 -6 4 -9 9 -6 5 3 14 -6 19 -22 5 -15 19 -37 31 -49 12 -13
21 -25 21 -28 -1 -27 3 -33 20 -38 13 -3 18 -11 14 -20 -3 -8 0 -18 5 -22 6
-3 9 -11 6 -16 -4 -5 -2 -9 4 -9 6 0 8 -7 4 -16 -4 -11 1 -22 12 -30 10 -8 15
-14 9 -14 -5 0 -2 -5 6 -10 11 -7 11 -10 2 -10 -9 0 -10 -5 -3 -19 6 -10 7
-21 4 -25 -3 -3 -1 -6 5 -6 7 0 12 -15 12 -34 0 -18 7 -39 15 -46 8 -7 12 -16
9 -21 -3 -5 0 -9 7 -9 9 0 10 -3 2 -11 -11 -11 5 -59 20 -59 4 0 3 -9 -3 -20
-7 -14 -7 -20 0 -20 5 0 10 -5 10 -12 0 -6 7 -20 17 -30 11 -13 12 -18 3 -18
-10 0 -10 -3 0 -15 7 -8 9 -15 6 -15 -4 0 -1 -10 6 -22 7 -13 11 -29 10 -35
-2 -7 2 -13 8 -13 5 0 10 -9 10 -19 0 -11 4 -21 9 -23 4 -1 25 -38 45 -80 21
-43 41 -80 47 -83 5 -4 9 -15 9 -26 0 -11 7 -22 16 -26 8 -3 13 -11 10 -18 -3
-8 2 -16 10 -19 8 -3 14 -12 14 -19 0 -8 7 -20 15 -27 9 -7 13 -15 11 -18 -3
-2 2 -11 10 -19 8 -8 12 -19 9 -24 -4 -5 -1 -9 4 -9 6 0 11 -7 11 -15 0 -8 4
-15 9 -15 5 0 14 -13 21 -30 7 -16 16 -30 21 -30 5 0 9 -9 9 -20 0 -11 6 -20
14 -20 8 0 18 -9 21 -20 4 -11 10 -18 15 -15 5 3 11 1 15 -5 4 -6 11 -5 19 3
8 6 12 15 10 19 -2 4 0 9 5 12 5 3 7 15 4 26 -3 11 -9 17 -14 14 -5 -3 -4 7 1
21 7 17 7 24 0 20 -6 -3 -10 1 -10 9 0 9 -5 16 -11 16 -5 0 -7 4 -4 10 8 13
-19 52 -31 42 -4 -4 -2 1 5 10 10 13 10 18 2 18 -7 0 -10 4 -7 9 4 5 2 11 -3
13 -5 1 -11 10 -13 18 -2 8 -9 21 -16 29 -7 7 -11 20 -8 27 3 8 1 14 -4 14 -6
0 -9 3 -9 8 5 28 -2 52 -13 46 -10 -5 -10 -4 -1 6 8 9 9 19 2 32 -5 10 -7 18
-3 18 4 0 0 8 -8 18 -20 23 -33 85 -15 77 6 -4 4 0 -5 8 -10 8 -18 26 -18 41
0 29 -16 67 -33 77 -5 4 -6 13 -1 20 13 21 14 39 2 39 -6 0 -8 7 -4 15 3 8 1
15 -4 15 -5 0 -7 7 -4 15 4 8 1 15 -6 15 -10 0 -10 3 0 15 9 11 9 15 1 15 -7
0 -10 4 -7 8 3 5 -1 19 -8 33 -18 36 -25 68 -15 71 5 2 3 15 -5 30 -8 14 -17
45 -21 67 -4 23 -12 41 -18 41 -5 0 -7 3 -4 7 4 3 2 12 -4 20 -9 10 -8 13 1
13 9 0 10 3 1 13 -6 8 -8 17 -4 20 3 4 1 7 -5 7 -13 0 -11 36 4 49 13 13 113
18 111 6 -1 -5 4 -10 11 -11 6 -1 13 -3 15 -4 1 -1 15 -4 31 -6 16 -2 42 -8
57 -15 15 -6 33 -8 38 -4 6 3 11 1 11 -6 0 -8 4 -8 15 1 9 7 15 8 15 2 0 -6 8
-9 18 -7 9 1 22 -2 29 -7 7 -5 17 -7 23 -3 5 3 10 1 10 -5 0 -7 6 -8 19 0 13
7 22 7 26 0 4 -7 13 -7 26 0 13 8 19 7 19 0 0 -6 5 -8 10 -5 6 3 10 0 10 -7 0
-13 34 -31 78 -41 19 -4 32 3 60 33 19 22 39 37 44 34 4 -3 8 0 8 7 0 8 4 8
15 -1 8 -7 15 -8 15 -3 0 5 9 9 20 9 11 0 20 -4 20 -9 0 -5 7 -4 15 3 12 10
15 10 15 0 0 -10 3 -10 15 0 12 10 15 10 15 0 0 -10 3 -10 15 0 11 9 15 9 15
1 0 -9 5 -9 21 0 15 8 19 8 15 0 -10 -15 7 -14 22 1 9 9 12 9 12 -1 0 -11 3
-11 15 -1 9 7 15 8 15 2 0 -11 18 -11 38 1 7 5 12 3 12 -4 0 -8 4 -8 15 1 11
9 15 9 15 1 0 -7 20 -1 49 14 35 17 52 21 57 13 5 -7 3 -8 -6 -3 -9 5 -11 4
-6 -3 4 -8 15 -8 31 -2 16 6 25 6 25 -1 0 -6 7 -6 20 1 11 6 25 8 30 5 6 -3
10 -2 10 4 0 6 7 8 15 5 8 -4 22 -1 30 6 8 6 19 9 25 5 5 -3 10 -1 10 5 0 6 5
8 11 5 16 -11 69 -12 69 -2 0 4 5 5 11 2 16 -11 69 -12 69 -3 0 5 9 4 20 -2
15 -8 20 -8 20 1 0 6 7 9 15 5 8 -3 15 0 15 7 0 8 4 6 10 -3 8 -12 10 -12 10
-1 0 8 3 11 7 8 3 -4 12 -2 19 4 8 6 21 9 29 5 8 -3 15 0 15 7 0 9 2 9 8 -1 9
-14 38 -7 60 15 15 15 32 17 32 5 0 -5 7 -9 15 -9 8 0 12 4 9 9 -3 4 3 8 13 8
11 0 24 5 30 11 8 8 17 8 32 0 12 -7 21 -8 21 -3 0 9 37 25 53 23 4 -1 7 4 7
10 0 5 5 7 10 4 6 -4 17 -1 25 5 8 7 15 8 15 3 0 -6 10 -15 23 -21 12 -6 17
-11 12 -11 -6 -1 -9 -18 -7 -41 3 -26 0 -40 -8 -40 -6 0 -8 -5 -5 -10 3 -5 1
-10 -5 -10 -6 0 -8 -5 -5 -10 4 -6 1 -17 -5 -25 -9 -11 -9 -15 -1 -15 17 0 13
-26 -6 -45 -17 -17 -25 -65 -11 -65 4 0 2 -11 -4 -25 -6 -14 -15 -25 -20 -25
-5 0 -6 -4 -3 -10 3 -5 0 -10 -7 -10 -9 0 -9 -3 2 -10 10 -6 11 -10 3 -10 -7
0 -13 -11 -13 -24 0 -14 -5 -28 -10 -31 -8 -5 -7 -11 1 -21 8 -10 8 -14 0 -14
-6 0 -11 -9 -11 -20 0 -11 -4 -20 -8 -20 -5 0 -9 -6 -9 -12 0 -7 -4 -22 -9
-32 -6 -15 -4 -17 7 -11 8 5 6 -1 -5 -13 -10 -12 -16 -28 -13 -35 3 -8 0 -20
-6 -26 -8 -8 -7 -11 3 -11 9 0 7 -6 -6 -17 -22 -20 -44 -65 -44 -89 0 -9 -10
-24 -22 -35 -15 -12 -18 -18 -9 -19 11 0 10 -5 -4 -20 -10 -11 -15 -20 -10
-20 4 0 2 -7 -5 -15 -7 -8 -9 -15 -4 -15 5 0 2 -6 -6 -13 -8 -7 -17 -21 -18
-32 -2 -11 -8 -24 -13 -29 -5 -6 -9 -19 -9 -30 0 -11 -10 -30 -22 -43 -15 -16
-17 -23 -7 -23 8 0 10 -3 4 -8 -5 -4 -16 -17 -23 -29 -10 -19 -10 -23 0 -23 8
-1 7 -5 -4 -13 -9 -7 -20 -25 -23 -40 -4 -15 -11 -30 -16 -33 -10 -6 -12 -47
-4 -56 9 -8 55 3 55 14 0 5 7 16 15 25 8 8 13 19 10 24 -4 5 0 9 7 9 11 0 11
2 0 9 -10 6 -10 10 3 21 8 7 15 18 15 24 0 12 23 34 64 61 16 11 26 13 26 6 0
-6 4 -11 8 -11 15 0 52 37 45 44 -3 3 -1 6 6 6 7 0 9 5 5 11 -3 6 -3 14 2 18
17 12 35 51 24 51 -6 0 -5 6 2 14 7 8 16 12 20 10 3 -2 4 4 1 14 -2 10 3 24
11 31 9 8 16 22 16 32 0 11 5 19 11 19 5 0 7 5 4 10 -3 6 -1 10 4 10 6 0 10 3
10 8 -3 18 2 32 17 46 11 11 12 16 3 16 -8 0 -4 9 8 23 11 12 19 30 18 40 -2
9 1 15 6 11 8 -5 13 9 10 29 0 4 3 7 8 7 8 0 23 45 25 73 1 4 7 12 15 16 7 5
11 13 7 19 -3 6 1 18 10 26 8 9 12 16 8 16 -3 0 -1 6 5 13 6 8 8 17 4 20 -3 4
-1 7 5 7 7 0 12 7 12 15 0 8 5 15 11 15 8 0 8 4 0 14 -9 11 -9 16 1 23 14 8
48 74 52 98 1 7 8 20 15 29 7 8 10 20 6 26 -3 5 -2 10 3 10 5 0 13 10 17 23 4
12 8 24 9 27 2 3 8 19 15 35 6 17 17 40 23 52 6 13 8 26 5 30 -4 3 0 14 8 23
9 10 17 26 20 36 6 34 36 83 58 99 12 8 17 15 12 15 -6 1 2 8 18 16 15 8 27
18 27 22 0 4 11 9 24 10 34 2 116 39 116 52 0 7 6 8 18 1 12 -7 22 -7 29 0 5
5 19 11 31 14 12 2 29 11 38 20 9 8 20 13 25 10 5 -4 9 -2 9 2 0 5 9 10 20 11
11 1 29 3 40 4 11 1 20 6 20 11 0 4 4 6 9 3 5 -3 14 1 21 9 15 19 37 19 55 1
16 -16 15 -35 -6 -67 -13 -18 -14 -28 -5 -43 8 -14 8 -20 -2 -23 -6 -3 -10 -9
-6 -14 3 -5 0 -9 -6 -9 -6 0 -10 -8 -8 -17 1 -10 -1 -24 -5 -31 -5 -7 -3 -12
5 -12 8 -1 4 -9 -10 -19 -15 -13 -18 -21 -10 -24 10 -4 10 -6 1 -6 -7 -1 -10
-8 -7 -16 4 -8 1 -15 -6 -15 -7 0 -10 -7 -6 -15 3 -9 -1 -18 -9 -21 -11 -5
-12 -10 -4 -26 6 -11 7 -18 2 -15 -5 3 -16 -8 -26 -24 -9 -17 -12 -27 -7 -24
6 3 7 -1 4 -9 -3 -9 -10 -16 -14 -16 -5 0 -7 -9 -5 -20 2 -11 -2 -20 -8 -20
-9 0 -9 -2 1 -8 9 -6 7 -13 -8 -29 -11 -12 -17 -31 -15 -42 2 -12 0 -19 -6
-16 -8 5 -13 -9 -6 -18 1 -2 -4 -11 -11 -19 -8 -11 -9 -17 -2 -20 6 -2 -1 -19
-15 -41 -17 -24 -21 -37 -13 -37 9 0 9 -3 -2 -10 -8 -5 -11 -10 -6 -10 5 0 1
-9 -8 -19 -10 -11 -13 -20 -7 -22 10 -4 -16 -71 -30 -77 -4 -2 -5 -12 -2 -22
3 -11 1 -20 -5 -20 -17 0 -21 -50 -4 -66 13 -14 17 -13 37 8 12 13 20 26 18
31 -2 4 3 10 11 13 9 3 14 10 11 14 -3 4 2 13 10 20 8 7 15 18 15 25 0 7 7 15
15 19 8 3 14 9 13 13 -1 4 10 27 25 50 15 24 27 46 27 51 0 5 9 17 20 27 11
10 20 24 20 32 0 8 7 21 16 30 8 9 13 22 10 29 -3 8 1 14 10 14 8 0 12 5 9 10
-3 6 -1 10 5 10 7 0 10 7 6 15 -3 8 -1 15 4 15 6 0 10 3 9 8 -2 15 14 52 23
52 5 0 7 4 3 9 -3 5 -1 12 5 16 5 3 10 17 10 30 0 12 7 26 16 29 8 3 13 10 10
15 -3 5 3 20 14 34 12 14 16 27 10 29 -6 2 -2 13 10 26 11 12 18 22 14 22 -3
0 -1 6 5 13 6 8 8 17 4 20 -3 4 -2 7 4 7 5 0 10 6 10 13 1 22 8 41 21 55 7 8
10 18 7 23 -4 5 -1 9 6 9 7 0 9 3 6 7 -4 3 -2 11 3 18 5 6 12 22 14 36 3 13 5
26 6 29 2 3 2 8 1 13 0 4 3 7 8 7 8 0 24 37 22 52 -1 5 4 8 10 8 5 0 7 4 4 10
-3 5 1 21 10 34 9 14 15 29 12 33 -2 4 4 16 15 26 10 9 18 15 18 12 0 -3 8 3
18 12 34 33 63 54 88 65 13 6 24 16 24 21 0 6 3 8 6 4 4 -3 19 0 34 8 15 8 30
11 34 8 3 -4 6 -2 6 4 0 12 50 37 68 34 6 -1 12 3 12 9 0 6 5 8 10 5 6 -3 10
-2 10 4 0 6 16 18 35 27 19 9 35 20 35 25 0 5 5 9 11 9 5 0 7 -5 4 -10 -4 -6
4 -5 19 1 14 7 24 15 21 19 -2 3 6 18 18 31 28 32 46 59 53 82 4 9 11 17 16
17 5 0 7 4 3 9 -3 5 4 12 15 16 11 4 18 11 15 16 -6 8 8 13 28 10 4 0 7 6 7
15 0 8 5 12 10 9 6 -3 10 -2 10 3 0 6 11 13 25 16 14 4 25 11 25 17 0 6 4 8 9
5 5 -3 12 1 15 10 3 8 11 12 17 8 6 -3 15 -1 19 5 4 7 17 13 28 14 12 1 22 5
22 10 0 4 5 5 10 2 6 -3 10 -1 10 4 0 6 4 11 9 11 5 0 22 5 38 12 15 6 32 10
36 9 5 -1 6 3 2 9 -3 5 -1 10 5 10 6 0 8 5 5 10 -3 6 -1 10 6 10 7 0 10 3 6 6
-3 3 2 14 11 24 32 35 37 45 34 66 -2 14 7 29 24 43 15 11 23 21 19 21 -5 0 1
10 13 23 12 13 19 27 15 30 -3 4 1 7 11 7 9 0 15 4 11 9 -3 5 6 18 20 29 13
11 22 22 19 24 -3 3 13 27 36 53 22 25 38 51 35 56 -4 5 -1 9 4 9 6 0 23 19
38 43 16 23 31 44 36 45 4 2 5 8 1 13 -3 5 0 9 5 9 6 0 11 7 11 15 0 8 5 15
10 15 6 0 10 7 10 15 0 9 7 18 15 21 8 4 12 10 9 15 -3 5 5 19 18 32 13 13 23
25 23 27 2 13 40 70 47 70 4 0 8 6 8 13 0 8 9 24 20 37 11 12 17 27 13 33 -3
6 -1 7 5 3 7 -4 14 4 18 21 4 15 15 41 25 57 10 16 15 34 12 39 -8 13 18 57
30 50 6 -4 8 0 5 9 -4 9 4 21 22 31 16 10 30 13 32 8 1 -5 12 -3 23 5 16 12
17 16 6 23 -8 6 -10 14 -5 22 12 20 14 39 3 39 -6 0 -7 5 -3 12 4 6 7 26 6 44
-1 18 3 36 8 39 6 4 8 11 5 16 -4 5 -2 9 2 9 5 0 8 15 8 32 0 34 31 82 46 72
5 -3 9 -1 9 4 0 5 11 22 25 38 16 18 24 37 22 51 -2 13 -1 23 4 23 4 0 3 15
-2 32 -6 22 -6 34 1 36 6 2 8 8 4 13 -3 5 0 9 6 9 6 0 8 5 5 10 -3 6 0 10 7
10 9 0 9 3 -2 10 -13 9 -13 10 0 10 13 0 13 1 0 10 -10 6 -11 10 -2 10 6 0 11
3 11 8 -3 19 2 33 11 27 6 -3 10 0 10 7 0 10 2 10 8 0 13 -20 40 17 46 62 4
35 -12 79 -36 96 -4 3 -3 12 1 19 5 8 5 27 1 42 -5 16 -5 29 -1 29 11 0 8 40
-4 40 -5 1 0 9 12 19 12 10 19 21 16 25 -4 3 -2 6 4 6 9 0 11 6 15 49 1 11 5
18 9 16 7 -5 34 45 31 58 -1 4 2 7 6 7 5 0 9 6 10 13 0 6 3 34 5 61 3 27 11
52 18 57 11 7 11 9 -1 9 -13 0 -13 1 0 10 8 5 10 10 5 10 -6 0 -11 9 -11 20 0
11 4 20 9 20 5 0 7 18 5 40 -2 22 0 40 4 40 3 0 3 14 -2 30 -6 20 -5 30 2 30
7 0 7 4 1 13 -12 14 -13 47 -2 47 4 0 4 14 -1 30 -5 17 -5 30 0 30 5 0 5 13 0
30 -5 18 -5 30 0 30 6 0 6 10 0 25 -5 14 -6 25 -2 25 4 0 1 4 -7 9 -8 6 -10
14 -5 22 12 19 14 39 4 39 -4 0 -6 8 -3 18 2 10 -3 24 -11 32 -12 10 -14 16
-5 26 9 11 9 14 0 14 -9 0 -9 5 0 21 8 16 8 20 -1 14 -9 -6 -9 -2 -1 14 9 16
9 21 0 21 -8 0 -8 4 1 15 10 12 10 15 0 15 -10 0 -10 3 0 15 9 11 9 15 1 15
-9 0 -9 5 -1 20 6 11 7 20 2 20 -4 0 -9 16 -10 35 -2 19 1 35 5 35 4 0 8 11 8
25 0 14 -4 25 -10 25 -5 0 -3 5 5 10 8 5 10 10 5 10 -6 0 -12 12 -13 28 -1 15
-7 29 -12 30 -11 4 -14 45 -3 55 9 10 10 57 1 57 -4 0 -8 13 -8 29 0 17 -5 33
-11 36 -6 4 -9 40 -8 89 1 48 -3 91 -10 104 -6 12 -9 22 -5 22 3 0 1 6 -5 13
-6 8 -8 17 -4 20 3 4 1 7 -7 7 -9 0 -10 3 -1 14 15 17 15 86 1 104 -3 3 -7 19
-9 33 0 5 -6 7 -12 3 -8 -4 -8 0 0 15 8 14 8 21 1 21 -8 0 -8 6 0 20 8 14 8
20 0 20 -6 0 -9 4 -5 9 3 5 -2 17 -11 25 -8 9 -11 16 -5 16 7 0 7 8 -1 25 -6
13 -15 22 -21 18 -6 -3 -8 6 -5 25 2 17 1 29 -3 27 -4 -3 -10 2 -13 11 -4 10
-2 13 7 9 6 -4 3 1 -7 9 -14 11 -15 16 -6 16 10 0 9 4 -4 13 -9 7 -18 19 -19
27 -2 8 -6 21 -10 28 -5 7 -3 12 5 12 8 0 9 3 3 8 -17 12 -41 47 -27 38 8 -5
7 5 -5 28 -9 20 -21 36 -26 36 -5 0 -3 8 4 17 12 14 12 15 0 9 -10 -7 -12 -3
-6 13 4 12 2 21 -4 21 -6 0 -11 11 -11 24 0 13 -7 29 -15 36 -8 7 -12 16 -9
21 3 5 0 9 -5 9 -6 0 -11 6 -11 13 0 7 -9 23 -19 34 -11 12 -17 24 -13 28 4 4
-5 5 -20 3 -16 -3 -28 -1 -28 4 0 5 -4 7 -8 4 -9 -5 -71 53 -72 67 0 4 0 16 0
28 0 11 -4 17 -10 14 -5 -3 -10 3 -10 14 0 12 -4 21 -9 21 -10 0 -9 25 1 36 4
3 4 12 2 19 -3 6 4 28 16 47 15 27 19 46 15 74 -3 22 -6 45 -7 52 -1 6 -8 12
-16 12 -8 0 -12 6 -8 15 3 8 1 15 -4 15 -6 0 -10 7 -10 15 0 8 -4 15 -10 15
-5 0 -10 7 -10 16 0 8 -4 12 -10 9 -5 -3 -10 0 -10 8 0 21 -26 68 -33 60 -4
-3 -7 0 -7 7 0 7 -11 28 -26 47 -14 18 -21 33 -17 33 4 0 0 5 -10 11 -9 6 -15
14 -12 19 3 4 -2 10 -10 14 -8 3 -21 20 -29 39 -15 36 -31 59 -83 114 -18 19
-33 40 -33 46 0 5 -3 8 -6 4 -3 -3 -26 18 -51 46 -25 29 -52 58 -61 65 -9 6
-13 12 -9 12 4 0 -7 15 -25 33 -18 18 -50 52 -70 75 -21 23 -41 42 -46 42 -5
0 -13 10 -19 23 -10 21 -67 85 -189 214 -28 29 -48 53 -45 53 3 0 -6 8 -19 17
-14 10 -28 17 -32 15 -5 -1 -8 3 -8 9 0 5 -4 7 -10 4 -5 -3 -10 1 -10 9 0 8
-9 18 -20 21 -11 3 -20 10 -20 13 0 4 -16 16 -35 26 -19 11 -35 23 -35 28 0 4
-7 8 -15 8 -8 0 -15 3 -15 8 0 4 -18 18 -40 32 -22 14 -40 28 -40 32 0 5 -7 8
-15 8 -8 0 -15 5 -15 11 0 5 -4 8 -10 4 -5 -3 -18 3 -29 14 -10 10 -35 27 -55
36 -20 10 -36 21 -36 26 0 5 -7 9 -15 9 -8 0 -15 4 -15 10 0 9 -66 47 -83 48
-5 0 -17 10 -26 21 -10 12 -23 21 -30 21 -6 0 -11 4 -11 8 0 4 -20 18 -45 30
-25 12 -45 27 -45 32 0 6 -4 9 -8 6 -5 -3 -19 4 -30 15 -12 11 -22 17 -22 14
0 -3 -6 -1 -12 5 -7 6 -35 24 -62 41 -26 16 -50 39 -53 49 -3 11 -10 20 -15
20 -5 0 -7 4 -3 10 3 5 -6 17 -20 26 -16 10 -22 20 -15 24 6 4 -1 19 -21 39
-17 18 -28 35 -25 38 3 3 -6 21 -21 39 -14 19 -21 34 -17 34 5 0 4 4 -1 8 -12
8 -46 59 -45 67 0 3 -4 11 -10 18 -22 26 -59 87 -53 87 4 0 -2 7 -13 16 -10 8
-12 12 -4 8 8 -4 3 5 -12 21 -25 25 -29 33 -27 51 0 3 -9 14 -20 23 -12 10
-21 23 -21 29 0 16 -40 26 -53 13 -8 -8 -8 -11 2 -11 7 0 10 -4 6 -9 -3 -5 1
-16 9 -24 8 -8 12 -17 9 -21 -3 -3 1 -14 9 -23 9 -10 18 -29 20 -43 1 -14 6
-28 10 -31 5 -3 9 -17 10 -31 1 -15 5 -25 8 -23 3 2 11 -5 18 -16 9 -13 9 -19
1 -19 -7 0 -5 -10 5 -25 9 -14 15 -29 12 -34 -3 -5 3 -16 14 -26 13 -12 19
-29 18 -53 -1 -20 4 -38 10 -40 7 -2 10 -8 6 -13 -3 -5 -1 -9 3 -9 5 0 9 -9 9
-20 0 -11 -5 -20 -10 -20 -5 0 -7 -3 -3 -6 3 -3 -2 -14 -11 -24 -12 -14 -20
-16 -34 -9 -10 5 -18 7 -18 3 0 -3 -7 -1 -15 6 -8 7 -24 10 -35 7 -11 -3 -20
-1 -20 3 0 7 -27 20 -50 25 -25 5 -50 18 -50 27 0 6 -6 6 -15 -2 -10 -9 -15
-9 -15 -1 0 6 -6 11 -13 11 -7 0 -22 8 -33 18 -10 9 -28 18 -38 20 -43 8 -161
96 -150 114 3 4 0 8 -5 8 -6 0 -11 7 -11 15 0 8 -5 15 -12 15 -6 0 -8 3 -5 7
4 4 -5 19 -20 35 -14 15 -24 30 -21 34 4 3 -2 14 -13 25 -11 11 -17 24 -14 29
4 6 1 10 -4 10 -6 0 -11 7 -11 16 0 8 -4 12 -10 9 -5 -3 -7 0 -4 8 3 8 -1 21
-8 28 -7 8 -24 34 -37 59 -14 25 -29 48 -35 52 -6 4 -7 8 -3 8 5 0 2 7 -5 15
-29 32 -34 41 -31 51 2 5 -6 20 -17 32 -12 12 -18 22 -14 22 3 0 0 7 -7 16
-17 21 -37 55 -45 77 -3 9 -11 17 -16 17 -5 0 -6 5 -3 10 3 6 2 10 -2 10 -5 0
-17 16 -26 35 -9 19 -25 51 -34 70 -9 19 -21 35 -25 35 -4 0 -8 9 -8 20 0 11
-7 20 -16 20 -8 0 -12 5 -9 10 3 6 3 10 -2 10 -9 0 -47 62 -45 73 1 4 -3 7 -9
7 -5 0 -7 6 -3 13 4 6 4 9 -1 5 -4 -4 -14 -3 -22 3 -10 9 -13 8 -13 -2 0 -11
-2 -11 -10 1 -5 8 -10 13 -11 10 0 -3 -2 -13 -4 -23 -2 -9 1 -15 6 -11 15 9
10 -6 -7 -23 -14 -14 -13 -18 10 -42 20 -21 23 -30 14 -39 -9 -9 -9 -12 1 -12
8 0 11 -6 7 -15 -3 -8 -1 -15 4 -15 5 0 7 -6 4 -14 -3 -8 -1 -17 5 -20 6 -4 8
-13 4 -21 -3 -9 1 -15 10 -15 8 0 17 -9 20 -20 3 -11 1 -20 -5 -20 -6 0 -3
-11 6 -25 9 -13 16 -31 16 -40 0 -18 20 -56 35 -67 6 -5 4 -8 -5 -8 -13 0 -13
-1 0 -10 13 -9 13 -10 0 -10 -13 -1 -13 -2 0 -13 8 -7 17 -23 18 -37 2 -14 10
-32 18 -41 8 -8 14 -30 14 -48 0 -20 6 -34 16 -38 11 -4 12 -8 4 -13 -8 -5 -8
-11 3 -22 17 -16 32 -57 29 -75 -2 -7 2 -13 8 -13 6 0 8 -4 5 -10 -3 -5 -2
-10 4 -10 10 0 12 -28 5 -66 -3 -18 -9 -21 -36 -18 -18 2 -39 6 -46 9 -7 2
-15 -2 -18 -10 -5 -13 -11 -13 -38 3 -17 10 -51 20 -76 21 -25 2 -48 5 -52 8
-5 2 -8 0 -8 -6 0 -6 -6 -8 -14 -5 -20 8 -106 10 -106 2 0 -3 -8 -4 -17 -2
-30 8 -343 9 -343 2 0 -4 -12 -3 -28 1 -15 5 -38 4 -51 -1 -13 -4 -26 -6 -29
-3 -3 3 -16 -5 -29 -17 -15 -14 -23 -17 -23 -8 0 7 -2 11 -6 8 -3 -3 -21 -2
-40 2 -21 5 -34 4 -34 -2 0 -6 -7 -8 -15 -5 -8 4 -17 2 -20 -4 -4 -5 -10 -7
-15 -4 -5 3 -21 -2 -35 -11 -16 -11 -25 -12 -25 -5 0 7 -5 9 -10 6 -19 -12
-60 -15 -60 -5 0 6 -9 6 -25 0 -14 -5 -25 -7 -25 -4 0 3 -13 -3 -29 -12 -25
-15 -32 -15 -45 -5 -11 9 -16 10 -16 2 0 -6 -9 -11 -19 -11 -11 0 -22 -4 -25
-9 -3 -5 -33 -11 -67 -13 -36 -3 -64 -10 -69 -18 -7 -11 -11 -11 -24 -1 -13
11 -16 11 -16 1 0 -8 -3 -10 -7 -7 -3 4 -12 2 -20 -4 -10 -9 -13 -8 -13 0 0 8
-12 4 -30 -9 -16 -12 -30 -17 -30 -11 0 6 -6 11 -14 11 -18 0 -18 48 1 77 9
13 13 36 11 53 -3 16 -1 30 4 30 5 0 6 5 3 10 -3 6 -1 10 4 10 6 0 11 18 11
41 0 26 7 50 20 67 16 20 18 27 8 34 -9 5 -10 8 -1 8 6 0 10 9 8 20 -2 11 0
18 4 15 5 -3 11 2 15 10 3 8 1 15 -3 15 -14 0 0 41 15 47 8 3 11 9 8 14 -3 5
-1 9 5 9 6 0 8 7 5 15 -4 8 1 33 10 56 9 22 12 38 7 35 -5 -3 -7 3 -4 14 3 11
9 18 13 15 11 -6 23 24 23 54 0 14 6 31 13 38 7 8 11 20 7 29 -5 13 2 32 38
106 5 10 9 24 9 32 0 7 9 25 21 40 11 14 15 26 9 26 -6 0 -2 13 10 30 12 17
17 30 11 30 -12 0 6 39 23 51 4 4 -6 8 -23 11 -17 2 -31 1 -31 -4z m-285
-1318 c8 0 19 -9 25 -20 9 -16 19 -20 43 -17 18 2 42 0 54 -4 13 -5 25 -4 28
2 4 5 11 7 16 4 5 -4 9 -2 9 3 0 6 9 8 20 5 11 -3 20 -1 20 4 0 4 31 8 70 6
56 -1 74 2 95 19 15 11 25 15 25 8 0 -8 4 -9 13 -3 15 11 57 9 66 -4 3 -6 13
-11 21 -11 33 -3 69 -10 79 -17 6 -3 11 -3 11 2 0 10 51 10 68 0 7 -5 12 -3
12 4 0 10 3 10 11 2 6 -6 18 -9 25 -6 8 3 14 0 14 -7 0 -7 7 -10 15 -6 8 3 15
0 16 -7 0 -7 2 -7 5 -2 4 11 155 9 164 -3 5 -7 9 -8 53 -16 12 -3 23 -5 25 -6
2 -2 58 -3 67 -1 3 1 8 1 11 0 4 0 11 5 15 13 7 10 9 10 9 0 0 -7 5 -10 10 -7
6 3 10 0 10 -7 0 -9 3 -9 10 2 8 12 10 12 10 1 0 -11 3 -11 15 -1 9 8 15 9 15
2 0 -6 9 -9 20 -7 11 2 22 -1 26 -6 3 -5 14 -7 25 -4 12 4 19 2 19 -7 0 -10 3
-9 10 2 8 13 10 13 10 1 0 -12 3 -12 12 -3 9 9 15 9 26 0 14 -12 113 -12 122
0 9 12 35 8 43 -6 5 -7 18 -12 30 -11 12 2 32 -3 45 -9 14 -8 22 -9 22 -2 0 5
5 10 11 10 5 0 8 -3 5 -8 -6 -10 76 -2 88 8 5 5 19 2 32 -7 17 -11 24 -12 24
-3 0 10 3 10 15 0 12 -10 15 -10 16 1 0 10 2 10 5 2 3 -7 12 -9 20 -6 8 3 14
0 14 -7 0 -6 5 -8 10 -5 6 3 10 1 10 -5 0 -6 5 -8 10 -5 6 3 10 1 10 -5 0 -6
4 -9 9 -6 10 6 35 -20 44 -46 4 -11 2 -18 -5 -18 -9 0 -9 -3 -1 -11 6 -6 9
-18 6 -25 -3 -8 -1 -14 4 -14 5 0 10 -14 11 -30 1 -17 11 -47 22 -67 14 -26
16 -41 9 -55 -7 -12 -6 -18 1 -18 6 0 9 -4 6 -9 -3 -5 1 -11 9 -15 11 -4 13
-11 5 -31 -5 -14 -6 -25 -2 -25 14 0 32 -55 32 -97 0 -24 5 -43 11 -43 5 0 7
-4 4 -10 -3 -5 -1 -10 5 -10 8 0 10 -9 6 -26 -5 -19 -1 -30 16 -45 13 -11 17
-18 11 -14 -16 7 -17 -11 -3 -20 8 -5 7 -11 -1 -21 -6 -8 -7 -14 -2 -14 5 0
10 -7 11 -15 1 -8 3 -22 4 -30 1 -8 6 -15 11 -15 5 0 4 -7 -3 -15 -10 -12 -10
-15 0 -15 8 0 10 -3 7 -7 -4 -3 -1 -16 7 -29 9 -12 16 -40 17 -63 2 -23 7 -41
12 -41 4 0 5 -4 2 -10 -3 -5 0 -10 7 -11 8 0 9 -2 2 -5 -14 -6 -5 -54 13 -72
7 -8 11 -18 8 -23 -4 -5 0 -9 7 -10 10 0 11 -2 0 -6 -10 -4 -10 -8 -1 -19 9
-11 8 -14 -2 -14 -11 0 -11 -2 1 -10 8 -5 11 -10 6 -10 -5 0 -3 -7 4 -15 7 -8
10 -22 6 -30 -3 -8 -1 -15 5 -15 6 0 7 -5 3 -11 -3 -6 3 -24 15 -40 12 -16 18
-29 13 -29 -11 0 -2 -73 10 -81 14 -9 18 -49 5 -49 -7 0 -6 -4 3 -10 8 -5 11
-10 7 -10 -5 0 2 -14 14 -32 13 -17 18 -28 11 -24 -7 4 -12 2 -12 -3 0 -6 5
-11 10 -11 7 0 7 -6 0 -20 -6 -11 -7 -20 -2 -20 10 0 9 -30 -1 -47 -4 -6 -2
-13 4 -15 9 -3 9 -9 0 -26 -9 -17 -9 -22 0 -22 8 0 8 -4 -1 -15 -7 -8 -10 -15
-6 -15 3 0 0 -15 -8 -33 -7 -19 -13 -46 -13 -61 0 -16 -6 -32 -13 -36 -7 -4
-10 -15 -7 -24 4 -9 3 -16 -2 -16 -4 0 -13 -12 -19 -26 -7 -14 -17 -22 -22
-19 -6 3 -10 -1 -10 -9 0 -9 0 -18 0 -21 0 -2 -12 -17 -25 -31 -14 -15 -25
-35 -25 -45 0 -10 -5 -21 -12 -25 -7 -5 -8 -3 -3 6 5 9 4 11 -3 6 -7 -4 -12
-14 -12 -22 0 -9 -5 -12 -12 -8 -8 5 -9 2 -5 -10 4 -10 3 -15 -3 -11 -6 3 -10
2 -10 -4 0 -5 -9 -12 -20 -16 -11 -3 -19 -9 -18 -13 3 -14 -14 -42 -23 -36 -5
3 -9 1 -9 -4 0 -5 -11 -21 -25 -36 -14 -15 -25 -25 -25 -23 0 2 -26 -21 -58
-52 -31 -31 -57 -58 -57 -61 0 -3 -62 -66 -137 -140 -76 -75 -138 -135 -138
-135 0 1 -18 -15 -40 -36 -39 -37 -70 -43 -87 -16 -3 5 -1 7 4 4 7 -4 10 3 9
18 0 14 -5 25 -9 25 -4 0 -3 9 2 19 8 15 7 20 -5 25 -9 3 -14 12 -11 20 3 8 3
17 -1 20 -10 11 -11 39 -1 58 5 10 6 18 1 18 -5 0 -9 7 -9 15 0 8 4 15 8 15 5
0 0 16 -11 35 -11 20 -20 53 -20 75 0 21 -5 42 -11 46 -6 3 -9 14 -6 24 3 11
-1 21 -9 24 -8 3 -14 12 -14 20 0 17 -42 99 -52 104 -5 2 -8 10 -8 18 0 8 -5
14 -11 14 -5 0 -8 4 -4 9 3 5 1 12 -5 16 -6 4 -8 10 -5 15 3 5 -4 11 -14 15
-11 3 -23 15 -26 26 -4 10 -11 19 -16 19 -5 0 -9 6 -9 13 0 7 -8 20 -17 29
-29 27 -48 52 -46 59 1 4 -4 13 -12 19 -8 7 -15 9 -15 5 0 -4 -7 -2 -15 5 -12
10 -15 10 -15 -1 0 -12 -2 -12 -9 0 -5 7 -14 10 -20 6 -9 -5 -7 -11 6 -22 10
-8 11 -11 3 -7 -11 6 -10 2 3 -13 9 -11 14 -23 10 -26 -3 -4 -1 -7 5 -7 7 0
12 -9 12 -20 0 -11 6 -20 13 -21 9 0 9 -2 -1 -6 -10 -4 -10 -8 -1 -19 9 -11 9
-14 0 -14 -7 0 0 -17 13 -37 17 -24 22 -39 15 -44 -8 -5 -8 -8 0 -13 6 -4 8
-12 5 -18 -4 -6 -1 -14 6 -18 14 -9 21 -190 8 -190 -4 0 -5 -7 -1 -15 3 -9 -2
-24 -11 -34 -10 -11 -13 -22 -8 -25 15 -9 2 -45 -21 -61 -12 -8 -16 -15 -9
-15 10 0 10 -5 2 -20 -6 -11 -7 -20 -3 -20 4 0 -2 -7 -13 -15 -10 -8 -15 -15
-9 -15 5 0 -1 -7 -13 -16 -12 -8 -22 -21 -22 -27 0 -12 -41 -43 -49 -38 -2 2
-7 -1 -10 -6 -11 -14 -51 -33 -51 -24 0 6 -12 6 -30 1 -18 -5 -30 -5 -30 1 0
5 -9 9 -20 9 -11 0 -20 5 -20 10 0 6 -7 10 -15 10 -15 0 -34 12 -55 35 -45 49
-71 87 -67 98 3 7 -1 21 -9 32 -8 10 -14 31 -14 47 0 15 -4 28 -8 28 -10 0
-31 57 -24 65 10 9 11 35 2 35 -9 0 7 59 21 74 4 5 5 14 2 21 -2 8 1 23 7 35
8 15 8 20 1 16 -6 -4 -11 -2 -11 3 0 6 4 11 10 11 5 0 7 6 4 14 -3 8 0 17 5
21 6 3 9 11 6 16 -4 5 -2 9 4 9 6 0 8 7 5 15 -4 8 -1 15 6 15 6 0 9 4 6 9 -3
5 1 14 10 21 12 11 12 15 2 21 -11 7 -11 9 0 9 7 0 11 4 8 9 -3 5 1 14 10 21
12 11 12 15 2 21 -10 7 -10 9 1 9 11 0 11 3 1 15 -9 11 -9 15 -1 15 7 0 9 5 6
10 -15 24 -75 -8 -75 -40 0 -6 -5 -10 -11 -10 -13 0 -59 -50 -59 -63 0 -5 -5
-5 -10 -2 -6 4 -10 3 -9 -2 3 -19 -2 -46 -7 -40 -4 4 -20 -14 -36 -40 -16 -25
-36 -52 -44 -61 -8 -8 -13 -21 -10 -28 3 -8 0 -13 -6 -11 -7 1 -13 -4 -14 -10
-1 -7 -3 -16 -4 -20 -1 -5 -2 -11 -1 -15 0 -5 -4 -8 -10 -8 -5 0 -8 -4 -4 -9
3 -5 1 -12 -5 -16 -5 -3 -10 -16 -10 -29 0 -12 -6 -28 -12 -35 -14 -13 -18
-122 -5 -114 4 2 7 -1 7 -6 0 -6 -4 -11 -8 -11 -5 0 -8 -18 -8 -40 1 -22 -2
-41 -5 -43 -3 -1 -9 -17 -12 -35 -5 -23 -3 -31 5 -26 7 5 8 3 4 -5 -5 -7 -10
-26 -13 -43 -4 -29 -33 -72 -33 -49 0 5 -9 13 -21 16 -11 4 -18 9 -15 12 3 3
-11 18 -32 33 -20 15 -64 52 -97 83 -33 31 -63 57 -67 57 -5 0 -9 6 -9 13 -1
6 -41 48 -89 92 -48 44 -88 86 -89 93 0 6 -5 12 -9 12 -17 0 -172 147 -172
163 0 4 -4 7 -10 7 -13 0 -59 48 -52 54 3 3 -2 6 -12 6 -9 0 -14 5 -11 10 3 6
-1 10 -9 10 -8 0 -18 9 -21 20 -3 11 -11 20 -16 20 -5 0 -9 8 -9 17 0 9 -3 13
-7 10 -6 -7 -27 23 -39 56 -3 9 -13 17 -21 17 -8 0 -11 4 -8 10 3 5 -5 21 -19
35 -14 14 -23 25 -20 25 3 0 -5 10 -16 22 -12 13 -16 24 -10 26 5 2 7 8 4 13
-3 6 -6 52 -7 104 0 52 -5 95 -10 95 -5 0 -4 7 3 15 10 12 10 15 0 15 -10 0
-10 3 0 15 7 8 9 15 4 15 -5 0 -2 6 6 13 8 7 17 23 19 37 2 14 4 31 5 38 1 8
7 17 12 20 9 7 11 15 19 54 2 9 9 26 15 37 7 13 7 21 1 21 -6 0 -1 16 10 35
11 19 18 39 14 45 -3 5 -1 10 4 10 6 0 10 3 10 8 -1 4 0 10 1 15 6 17 8 28 9
51 0 14 8 32 17 41 9 9 14 19 10 22 -3 3 -1 12 5 20 9 10 8 13 -1 13 -9 0 -7
6 5 20 9 10 15 26 12 35 -4 8 -2 15 3 15 5 0 7 7 4 15 -4 8 -1 15 7 15 7 0 9
3 6 7 -4 3 -2 12 4 19 6 8 9 21 5 29 -3 8 -1 15 5 15 6 0 8 4 4 9 -3 6 1 16 8
23 8 7 12 20 9 30 -4 17 18 78 29 78 3 0 5 11 4 25 -2 13 3 30 11 36 12 10 12
14 2 20 -10 7 -11 9 0 9 10 0 10 5 1 21 -7 13 -7 19 -1 15 6 -3 13 3 17 14 3
11 9 20 13 20 7 0 8 13 14 97 1 17 5 31 9 30 4 -1 8 3 10 8 1 6 9 21 16 35 7
15 9 27 3 30 -6 4 -3 14 7 26 20 21 23 45 8 56 -6 5 -5 8 3 8 6 0 12 7 12 15
0 8 5 15 10 15 6 0 10 13 10 28 0 15 5 33 11 39 6 6 9 19 7 29 -2 11 6 29 18
42 12 14 20 34 18 48 -1 13 2 24 7 24 6 0 7 5 4 10 -3 6 -2 10 4 10 5 0 8 9 6
20 -2 13 2 20 11 20 8 0 14 5 14 11 0 5 4 8 9 4 5 -3 13 0 17 7 6 9 9 9 12 0
2 -7 10 -12 17 -12z m-535 -195 c5 3 20 1 34 -5 26 -10 36 -43 16 -55 -6 -4
-8 -11 -5 -16 4 -5 1 -9 -5 -9 -6 0 -8 -5 -5 -10 3 -6 -3 -24 -15 -40 -15 -21
-17 -30 -8 -31 10 0 10 -2 0 -6 -6 -2 -10 -9 -6 -14 3 -5 0 -9 -6 -9 -6 0 -10
-6 -9 -12 2 -21 -13 -58 -23 -58 -6 0 -8 -11 -6 -25 3 -14 -1 -30 -8 -36 -8
-6 -14 -20 -14 -31 0 -10 -9 -29 -20 -40 -12 -14 -16 -24 -10 -28 7 -4 3 -17
-10 -33 -12 -15 -16 -27 -10 -27 11 0 -18 -62 -32 -68 -4 -2 -5 -9 -2 -17 3
-7 1 -16 -5 -20 -6 -3 -11 -17 -11 -31 0 -13 -5 -24 -12 -24 -6 0 -9 -3 -5 -6
3 -4 -1 -13 -9 -22 -13 -12 -13 -16 -2 -23 9 -6 9 -9 1 -9 -11 0 -25 -29 -20
-41 1 -3 -6 -14 -16 -24 -10 -9 -16 -23 -13 -30 3 -8 -1 -16 -8 -18 -12 -5
-22 -36 -28 -84 -1 -7 -5 -10 -10 -7 -7 5 -12 -18 -9 -38 0 -5 -4 -8 -10 -8
-5 0 -8 -4 -4 -9 3 -5 1 -12 -5 -16 -6 -4 -8 -11 -5 -16 4 -5 -1 -12 -9 -15
-9 -3 -13 -10 -10 -15 3 -5 0 -9 -7 -9 -9 0 -9 -3 0 -14 9 -11 8 -15 -4 -20
-9 -3 -13 -10 -10 -16 3 -5 2 -10 -4 -10 -6 0 -8 -7 -5 -15 4 -8 1 -15 -5 -15
-6 0 -11 -9 -11 -20 0 -11 -5 -20 -11 -20 -5 0 -8 -4 -4 -9 3 -5 -3 -17 -12
-27 -13 -12 -14 -19 -6 -21 9 -3 6 -11 -7 -25 -11 -12 -17 -25 -14 -30 3 -4 0
-8 -5 -8 -6 0 -10 -3 -10 -7 3 -21 -2 -33 -13 -27 -7 5 -8 3 -3 -5 4 -8 -2
-25 -15 -43 -12 -16 -19 -32 -16 -35 3 -4 6 0 6 7 0 7 3 11 6 7 4 -3 -3 -18
-15 -33 -17 -21 -19 -29 -9 -36 7 -4 8 -8 3 -8 -15 0 -43 -52 -38 -67 3 -7 0
-13 -5 -13 -6 0 -16 -17 -23 -37 -6 -21 -17 -44 -23 -52 -9 -12 -8 -13 3 -6
11 6 12 5 5 -6 -4 -8 -9 -20 -11 -28 -1 -8 -7 -17 -14 -21 -6 -4 -8 -13 -5
-19 4 -6 0 -14 -8 -17 -8 -3 -15 -17 -14 -32 0 -23 -7 -77 -12 -92 -4 -10 -7
-25 -8 -42 -1 -10 -9 -18 -18 -18 -8 0 -13 -4 -9 -9 3 -6 -4 -9 -15 -8 -11 1
-20 7 -20 14 0 7 -5 13 -12 13 -9 0 -9 3 0 12 15 15 15 28 1 28 -6 0 -22 9
-36 20 -14 11 -20 20 -13 20 7 0 10 3 7 7 -4 3 -2 12 4 19 6 8 9 21 5 29 -3 8
-1 15 5 15 6 0 7 4 4 10 -3 5 -1 19 5 30 8 15 8 20 -1 20 -8 0 -8 4 1 15 8 10
9 15 1 15 -7 0 -8 8 -1 25 7 17 6 25 -1 25 -8 0 -7 5 1 15 10 12 10 15 0 15
-10 0 -10 3 0 15 6 8 9 18 6 24 -3 5 1 12 10 15 8 3 12 10 9 16 -3 5 -1 10 6
10 8 0 9 3 0 13 -6 8 -8 17 -4 20 3 4 1 7 -5 7 -7 0 -3 9 9 21 13 13 18 27 14
40 -4 11 -2 19 5 19 8 0 8 6 0 20 -8 14 -8 20 0 20 6 0 9 4 5 9 -3 5 -1 12 5
16 6 4 8 11 5 16 -4 5 -2 9 3 9 5 0 8 14 7 30 -1 17 1 33 6 36 5 3 7 10 4 15
-4 5 -1 9 5 9 7 0 9 8 5 21 -4 12 -3 19 1 16 5 -3 9 6 9 19 0 13 -4 24 -10 24
-5 0 -4 4 3 8 7 5 15 19 17 32 2 13 10 27 17 32 10 6 10 8 1 8 -7 0 -13 5 -13
11 0 5 6 7 13 3 9 -6 9 -5 0 7 -9 11 -8 18 3 33 8 11 14 38 14 60 0 23 7 50
15 60 8 10 12 23 9 27 -3 5 1 9 8 9 9 0 9 3 -2 10 -8 5 -11 10 -6 10 5 0 2 8
-5 17 -9 11 -10 14 -2 10 8 -5 15 1 19 18 3 13 11 22 16 19 6 -4 5 2 -1 14
-13 25 -14 35 -3 28 5 -3 9 1 9 9 0 8 -5 15 -11 15 -6 0 -5 4 2 9 8 4 14 11
13 14 0 4 6 21 14 39 10 25 10 35 2 40 -8 5 -7 8 3 8 13 0 13 1 0 10 -11 7
-11 10 -2 10 7 0 10 5 7 10 -3 6 -2 10 3 10 4 0 9 21 11 47 1 26 6 52 10 58
16 23 31 66 20 59 -8 -4 -8 0 0 15 9 16 9 21 -1 21 -6 0 -3 7 8 15 10 8 15 15
9 15 -5 0 -3 5 5 10 11 7 11 10 2 10 -9 0 -10 5 -2 19 7 14 7 20 -1 23 -8 3
-6 10 5 21 10 9 14 17 9 17 -4 0 -1 5 7 10 13 9 13 10 0 10 -9 0 -3 8 13 19
16 10 28 21 28 25 -1 3 1 5 3 4 2 -2 13 6 25 16 12 11 21 15 21 11 0 -4 8 1
18 11 9 10 26 20 37 22 11 2 27 11 35 20 9 9 22 18 30 20 8 2 18 8 21 13 3 6
10 9 15 7 5 -1 18 3 29 9 24 13 35 14 58 2 11 -6 17 -6 17 1 0 5 5 10 11 10 5
0 8 -4 5 -9 -4 -5 3 -7 14 -4 11 3 23 10 27 16 5 8 8 7 11 -1 2 -7 7 -10 12
-7z m3000 -56 c0 -7 39 -22 53 -20 4 1 7 -6 7 -15 0 -8 5 -12 10 -9 6 3 10 1
10 -5 0 -6 5 -8 10 -5 6 3 10 3 10 -2 0 -4 13 -14 28 -21 16 -6 38 -21 50 -32
12 -12 22 -18 22 -14 0 4 9 -1 19 -10 20 -18 35 -56 22 -56 -4 0 -6 -13 -3
-30 2 -16 8 -30 13 -30 5 0 9 -7 9 -16 0 -9 5 -12 12 -8 7 5 8 3 2 -7 -11 -17
-14 -69 -4 -69 13 0 28 -47 20 -61 -6 -8 -4 -16 3 -21 9 -6 9 -8 -1 -8 -10 0
-9 -4 2 -16 9 -8 14 -19 11 -24 -3 -5 1 -10 7 -13 10 -3 10 -7 -1 -20 -7 -10
-9 -17 -3 -17 6 0 9 -8 8 -17 -2 -10 3 -24 11 -31 7 -8 13 -35 13 -63 0 -29 4
-49 11 -49 7 0 10 -12 7 -30 -3 -16 -1 -30 3 -30 4 0 6 -8 5 -17 -2 -10 3 -24
11 -31 7 -8 11 -18 8 -23 -4 -5 -1 -9 5 -9 8 0 8 -6 0 -20 -7 -13 -7 -20 -1
-20 6 0 8 -7 5 -15 -4 -8 -1 -21 5 -29 6 -7 8 -16 4 -19 -3 -4 -1 -7 5 -7 7 0
10 -12 8 -30 -2 -16 3 -42 11 -57 8 -16 12 -38 10 -50 -2 -12 0 -20 4 -17 5 3
9 0 9 -5 0 -6 -5 -11 -11 -11 -6 0 -1 -13 10 -29 12 -16 18 -36 15 -45 -3 -9
-1 -23 6 -31 9 -11 10 -15 0 -15 -7 0 -3 -11 9 -26 16 -20 18 -31 10 -45 -7
-13 -6 -19 1 -19 6 0 9 -4 6 -8 -3 -5 1 -26 9 -48 10 -29 10 -41 2 -46 -9 -6
-9 -8 1 -8 6 0 12 -9 12 -19 0 -11 4 -22 9 -25 5 -3 11 -15 14 -26 3 -12 1
-18 -5 -14 -6 4 -5 -3 1 -15 9 -16 9 -21 0 -21 -8 0 -8 -4 1 -15 7 -8 9 -15 4
-15 -5 0 -3 -4 4 -8 6 -5 13 -27 15 -50 1 -23 5 -42 10 -42 4 0 7 -7 7 -15 0
-8 4 -15 10 -15 6 0 6 -9 0 -25 -7 -17 -6 -25 1 -25 8 0 8 -4 0 -14 -9 -11 -8
-15 4 -20 8 -3 14 -9 14 -13 -1 -4 1 -16 5 -25 4 -9 2 -26 -4 -38 -10 -18 -10
-21 2 -14 11 6 11 5 -1 -9 -11 -14 -11 -17 0 -17 11 0 11 -2 -1 -10 -11 -7
-11 -10 -2 -10 7 0 10 -4 7 -10 -3 -5 0 -10 7 -10 9 0 9 -3 -2 -10 -8 -5 -11
-10 -5 -10 5 0 -1 -7 -13 -16 -12 -8 -20 -19 -18 -23 3 -4 -6 -14 -19 -21 -13
-7 -22 -17 -19 -22 3 -4 0 -8 -7 -8 -7 0 -9 -3 -6 -6 3 -4 -5 -15 -18 -26 -14
-11 -25 -26 -25 -34 0 -8 -6 -13 -12 -12 -7 2 -12 -3 -10 -9 1 -7 -3 -13 -8
-13 -6 0 -15 -11 -22 -25 -6 -13 -14 -23 -17 -21 -6 4 -36 -25 -35 -34 1 -11
-83 -100 -89 -94 -2 2 -16 -7 -32 -21 -15 -15 -29 -24 -32 -21 -3 3 -16 -6
-30 -20 -13 -13 -30 -24 -38 -24 -8 0 -21 -10 -30 -22 -8 -13 -16 -22 -18 -20
-4 6 -41 -12 -63 -31 -12 -10 -25 -18 -29 -17 -4 1 -11 -2 -14 -7 -13 -17 -64
-58 -57 -45 7 11 4 11 -13 0 -12 -7 -21 -16 -21 -21 0 -4 -4 -6 -9 -2 -5 3
-17 -2 -25 -11 -9 -8 -16 -12 -16 -7 0 4 -4 3 -8 -2 -4 -6 -26 -19 -49 -29
-24 -11 -43 -23 -43 -28 0 -4 -3 -7 -7 -6 -12 2 -46 -13 -64 -29 -9 -7 -27
-16 -39 -18 -13 -3 -26 -8 -29 -13 -3 -5 -24 -17 -46 -27 -22 -10 -52 -27 -67
-37 -16 -11 -28 -16 -28 -11 0 4 -4 3 -8 -4 -13 -20 -61 -20 -58 0 2 16 54 67
68 67 5 0 6 5 3 10 -3 6 -2 10 3 10 10 0 82 67 82 78 1 4 23 25 51 47 72 58
127 113 121 120 -4 3 2 3 12 -1 14 -5 17 -4 12 4 -4 7 -3 12 2 12 4 0 24 14
42 30 18 17 39 30 46 30 6 0 30 20 53 45 22 24 41 43 41 40 0 -2 15 11 33 30
19 19 37 31 41 27 4 -4 6 -2 4 4 -3 11 60 78 75 79 4 0 7 5 8 10 1 16 31 45
46 45 8 0 12 3 9 8 -2 4 2 16 10 27 8 10 14 15 14 11 0 -5 19 11 42 35 24 24
42 47 41 51 -2 4 6 10 17 13 11 3 27 19 37 36 9 16 21 29 25 29 4 0 8 7 8 15
0 8 6 15 13 15 8 0 7 3 -3 10 -13 8 -12 10 1 15 11 4 16 22 18 62 1 31 5 61 8
66 4 6 1 7 -7 2 -10 -6 -12 -4 -7 10 5 11 1 22 -10 31 -15 11 -15 13 -3 14 13
0 13 1 0 10 -10 7 -11 10 -2 10 9 0 9 6 -3 23 -8 13 -12 27 -8 30 3 4 -2 7
-12 7 -13 0 -15 3 -7 13 8 10 7 21 -4 42 -8 15 -12 30 -9 33 3 3 -1 12 -8 20
-10 13 -9 14 3 7 13 -8 13 -7 1 8 -7 9 -10 17 -5 17 5 0 2 6 -7 13 -20 16 -32
47 -18 47 7 0 4 11 -6 26 -9 14 -15 34 -12 45 3 10 0 17 -7 16 -6 -1 -10 4 -8
12 1 7 -2 19 -8 25 -5 7 -7 16 -3 19 3 4 1 7 -6 7 -7 0 -10 4 -6 9 3 5 1 12
-5 16 -6 4 -8 11 -5 16 4 5 2 9 -4 9 -6 0 -8 6 -5 14 3 8 0 17 -5 21 -6 3 -9
11 -6 16 4 5 1 9 -6 9 -7 0 -10 3 -6 6 3 4 0 19 -9 35 -8 16 -12 29 -8 29 4 0
1 6 -5 13 -6 8 -8 17 -4 21 4 4 1 11 -6 15 -7 5 -14 20 -14 35 -1 14 -5 26 -9
26 -5 0 -8 7 -8 15 0 8 -5 15 -11 15 -8 0 -8 5 1 15 9 11 9 15 1 15 -7 0 -9 5
-6 10 3 6 1 10 -5 10 -6 0 -8 5 -5 10 3 6 1 10 -4 10 -6 0 -11 11 -11 24 0 14
-5 28 -11 31 -6 4 -8 14 -5 22 4 8 2 11 -5 7 -8 -4 -9 1 -4 15 4 13 2 21 -5
21 -6 0 -8 5 -5 10 3 6 1 10 -5 10 -6 0 -8 5 -5 10 3 6 2 10 -4 10 -6 0 -8 6
-5 14 3 7 -2 20 -10 28 -11 11 -12 18 -3 27 7 7 8 11 0 11 -10 0 -26 36 -24
53 1 4 -3 7 -9 7 -5 0 -6 7 -3 17 4 11 3 14 -5 9 -9 -5 -12 5 -12 34 0 25 -4
39 -10 35 -9 -6 -11 -1 -14 38 -1 6 -9 21 -18 31 -12 13 -15 24 -8 36 7 13 5
22 -5 30 -8 7 -15 18 -15 24 0 6 -9 28 -20 49 -11 20 -15 37 -9 37 6 0 1 14
-11 30 -13 19 -17 30 -9 30 8 0 6 6 -4 18 -10 10 -17 24 -17 30 0 7 -4 12 -10
12 -5 0 -7 7 -4 15 4 8 1 22 -6 30 -10 12 -10 15 1 15 11 0 11 2 -1 10 -10 6
-11 10 -2 10 6 0 11 3 11 8 -4 26 4 30 56 29 30 -1 55 2 55 6 0 5 14 0 30 -10
17 -9 30 -20 30 -24z m620 -280 c0 -5 5 -7 10 -4 6 3 10 1 10 -5 0 -12 24 -40
35 -40 3 0 3 6 0 13 -4 6 2 3 12 -8 10 -11 39 -36 65 -55 26 -19 48 -41 48
-49 0 -7 10 -22 22 -32 11 -11 18 -19 13 -19 -4 0 -2 -7 5 -15 7 -8 9 -15 5
-15 -4 0 6 -14 24 -30 17 -17 31 -33 31 -36 0 -19 112 -93 143 -94 10 0 15 -4
12 -10 -3 -5 3 -10 14 -10 12 0 21 -5 21 -11 0 -5 5 -7 10 -4 6 3 13 -1 16 -9
3 -9 10 -13 15 -10 5 3 9 -2 9 -10 0 -9 5 -16 11 -16 5 0 7 -5 4 -10 -3 -6 1
-13 9 -16 9 -3 16 -12 16 -20 0 -8 5 -14 11 -14 5 0 7 -4 4 -10 -3 -5 1 -10 9
-10 9 0 16 -4 16 -10 0 -5 9 -19 20 -30 11 -11 21 -26 23 -33 1 -6 10 -18 20
-25 9 -7 17 -20 17 -28 0 -8 5 -12 10 -9 6 3 10 1 10 -5 0 -11 9 -24 43 -61 9
-10 17 -23 17 -29 0 -5 5 -10 10 -10 6 0 10 -10 10 -22 0 -12 3 -18 7 -15 10
10 35 -31 27 -45 -4 -6 -3 -8 2 -5 6 3 23 -15 39 -41 16 -26 34 -50 40 -54 5
-4 6 -8 1 -8 -4 0 2 -9 15 -21 13 -11 18 -17 10 -13 -12 6 31 -60 50 -76 3 -3
19 -25 36 -50 17 -25 45 -60 62 -78 17 -18 31 -37 31 -43 0 -5 5 -9 11 -9 5 0
7 -4 4 -10 -3 -5 -1 -10 5 -10 6 0 16 -13 21 -30 6 -16 15 -30 20 -30 6 0 9
-6 8 -12 -3 -29 2 -49 11 -43 6 3 7 -1 4 -9 -4 -9 -1 -16 6 -16 8 0 10 -8 7
-21 -4 -16 0 -23 14 -26 16 -5 18 -8 7 -14 -9 -6 -10 -9 -1 -9 7 0 10 -7 7
-15 -4 -8 -1 -15 7 -15 7 0 10 -3 6 -6 -3 -3 6 -26 19 -50 14 -26 20 -44 13
-44 -8 0 -8 -4 1 -15 10 -12 10 -18 0 -30 -10 -12 -10 -15 1 -16 10 0 11 -2 1
-6 -6 -2 -9 -10 -5 -16 4 -7 8 -18 9 -25 2 -8 6 -21 10 -30 12 -27 14 -61 3
-67 -5 -4 -5 -13 1 -24 5 -11 11 -33 12 -50 1 -17 6 -31 11 -31 5 0 7 -6 4
-12 -2 -7 3 -22 12 -32 11 -14 12 -17 2 -11 -11 6 -13 4 -7 -10 4 -11 2 -22
-6 -27 -10 -6 -10 -8 -1 -8 7 0 10 -7 7 -15 -4 -8 -1 -15 7 -15 7 0 9 -3 6 -7
-4 -3 -2 -12 4 -20 7 -8 8 -13 1 -13 -5 0 -2 -16 8 -36 10 -20 16 -42 13 -50
-3 -8 -1 -14 4 -14 5 0 10 -9 11 -20 4 -43 6 -50 13 -50 3 0 9 -11 11 -25 3
-14 1 -25 -6 -25 -6 0 -4 -5 4 -10 10 -7 11 -10 2 -10 -10 0 -9 -5 2 -22 20
-33 29 -78 15 -78 -8 0 -7 -6 2 -17 8 -9 9 -14 3 -10 -7 4 -3 -10 7 -30 12
-24 15 -39 8 -43 -6 -5 -5 -11 4 -18 8 -7 13 -23 11 -37 -1 -14 3 -25 10 -25
12 0 15 -64 3 -77 -4 -3 -2 -12 5 -20 6 -7 8 -16 4 -20 -3 -3 0 -13 8 -22 14
-16 27 -121 15 -121 -3 0 -4 -10 -2 -22 6 -38 8 -298 2 -298 -3 0 -3 -22 1
-50 4 -27 3 -50 -2 -50 -5 0 -4 -9 2 -20 8 -14 8 -20 0 -20 -6 0 -9 -4 -6 -8
10 -16 15 -62 6 -59 -4 1 -9 -2 -11 -8 -1 -5 -9 -21 -16 -35 -8 -16 -9 -26 -2
-28 6 -3 6 -9 -2 -18 -9 -11 -9 -14 1 -14 10 0 10 -3 1 -14 -9 -10 -9 -15 -1
-18 7 -2 3 -14 -10 -31 -12 -15 -16 -27 -10 -27 7 0 8 -6 0 -19 -5 -11 -10
-34 -10 -51 0 -17 -4 -29 -9 -26 -4 3 -7 -6 -5 -19 1 -14 -2 -25 -6 -25 -5 0
-5 -13 0 -30 5 -18 5 -30 -1 -30 -5 0 -9 -7 -9 -15 0 -8 -6 -15 -12 -15 -10 0
-10 -2 0 -9 11 -7 11 -9 0 -13 -9 -4 -13 -20 -13 -42 1 -20 -2 -36 -7 -36 -5
0 -6 -4 -3 -10 3 -5 0 -10 -7 -11 -9 0 -9 -2 -1 -5 13 -6 2 -56 -18 -80 -6 -8
-8 -14 -5 -14 4 0 2 -10 -5 -21 -7 -15 -8 -19 0 -15 7 5 9 1 5 -8 -3 -9 -10
-16 -15 -16 -5 0 -9 -15 -9 -34 0 -19 -6 -41 -12 -48 -7 -7 -13 -24 -13 -38 0
-14 -6 -34 -13 -46 -6 -11 -9 -24 -5 -27 3 -4 2 -7 -3 -7 -5 0 -10 -9 -10 -20
0 -11 4 -20 9 -20 4 0 2 -6 -5 -14 -7 -8 -15 -13 -18 -11 -3 2 -5 -9 -6 -23
-1 -24 -9 -52 -35 -117 -4 -11 -11 -35 -14 -52 -4 -18 -10 -33 -14 -33 -4 0
-8 -6 -9 -12 -1 -13 -9 -48 -12 -58 -1 -3 -2 -8 -1 -12 0 -5 -3 -8 -8 -8 -5 0
-8 -8 -6 -17 1 -10 -2 -24 -8 -32 -6 -7 -12 -20 -13 -28 -2 -8 -11 -24 -21
-36 -13 -14 -14 -18 -3 -13 8 4 6 0 -4 -8 -11 -9 -16 -16 -11 -16 4 0 0 -9
-10 -20 -14 -15 -15 -20 -4 -21 10 0 11 -2 2 -6 -7 -2 -13 -11 -13 -18 0 -7
-7 -16 -15 -19 -9 -3 -15 -11 -14 -18 3 -24 -1 -37 -15 -51 -8 -7 -16 -25 -18
-38 -1 -13 -11 -32 -21 -41 -10 -9 -17 -19 -16 -23 4 -11 -24 -75 -33 -75 -4
0 -7 -3 -6 -7 4 -12 -31 -63 -71 -107 -20 -21 -29 -35 -21 -31 8 4 -2 -10 -22
-31 -21 -22 -38 -46 -38 -53 0 -6 -4 -9 -10 -6 -5 3 -10 -1 -10 -10 0 -8 -7
-18 -15 -21 -8 -4 -15 -11 -15 -18 0 -6 -18 -30 -40 -54 -22 -23 -38 -42 -37
-42 2 0 -22 -27 -55 -61 -32 -33 -58 -67 -58 -75 0 -9 -4 -13 -8 -10 -5 3 -16
-8 -26 -25 -9 -16 -24 -29 -33 -29 -9 0 -13 -3 -10 -7 4 -3 -5 -15 -20 -25
-16 -10 -24 -18 -18 -18 5 0 -1 -7 -13 -16 -12 -8 -22 -19 -22 -25 0 -5 -9
-18 -20 -29 -11 -11 -17 -26 -14 -35 4 -8 1 -15 -6 -15 -6 0 -8 -5 -5 -10 3
-6 1 -10 -4 -10 -6 0 -11 -8 -11 -18 0 -10 -11 -29 -25 -42 -14 -13 -25 -19
-25 -14 0 5 -4 3 -8 -3 -11 -17 -55 14 -48 33 3 8 0 14 -6 14 -7 0 -7 4 1 13
6 8 8 17 5 20 -4 3 3 22 14 41 15 25 17 37 9 45 -7 7 -7 11 -1 11 6 0 11 6 12
13 1 6 5 32 8 57 3 25 7 51 9 58 3 7 4 15 4 18 0 4 5 11 13 15 11 7 11 9 0 9
-10 0 -10 4 2 16 19 19 21 34 4 34 -8 0 -5 7 6 15 11 8 16 15 12 15 -4 0 -3 8
3 17 6 11 6 24 0 35 -7 12 -6 18 1 18 6 0 9 4 5 9 -3 5 2 17 12 26 13 13 13
19 3 25 -10 6 -10 9 1 16 14 9 19 30 22 92 1 17 5 32 9 32 4 0 5 7 1 15 -3 9
2 22 12 29 13 9 14 15 7 20 -9 5 -8 13 3 30 8 12 12 26 8 30 -4 4 -1 11 6 16
14 8 22 70 9 70 -4 0 3 20 17 45 13 25 19 43 14 40 -5 -4 -9 -1 -9 4 0 6 4 11
9 11 5 0 7 8 4 18 -2 10 3 24 11 32 12 10 14 16 5 26 -7 9 -8 14 -1 14 5 0 8
8 5 18 -2 10 3 30 11 46 8 16 12 34 10 41 -3 7 -1 16 5 19 6 4 8 13 4 21 -3 8
0 15 7 15 6 0 10 6 7 13 -2 6 0 20 5 30 6 11 5 17 -3 17 -8 0 -8 4 1 15 10 12
10 15 0 15 -8 0 -4 7 8 18 15 13 18 22 11 34 -6 11 -5 19 1 23 6 4 8 11 5 16
-4 5 -1 9 5 9 6 0 9 4 5 9 -3 5 -1 12 5 16 6 4 8 11 5 16 -4 5 -2 9 3 9 6 0 7
14 2 35 -6 25 -4 38 6 46 8 6 14 28 14 49 0 21 6 43 14 49 8 7 15 20 15 29 0
9 2 28 3 42 2 14 0 28 -4 31 -5 3 0 14 10 25 22 23 35 54 23 54 -8 0 -8 21 -1
40 1 3 2 8 1 13 0 4 4 7 10 7 6 0 9 9 6 20 -3 11 -2 20 3 20 4 0 5 11 2 25 -2
14 1 32 8 40 6 8 8 20 4 26 -5 8 -3 9 6 4 10 -6 12 -1 8 19 -3 14 -2 26 3 26
4 0 6 9 4 20 -2 11 1 20 7 20 6 0 8 3 5 6 -3 4 -2 15 4 25 7 14 6 19 -2 19 -8
0 -8 4 1 15 9 11 9 15 1 15 -7 0 -9 5 -4 13 11 18 12 37 2 37 -6 0 -5 9 2 21
8 15 8 19 0 15 -8 -5 -8 0 -1 18 7 19 6 26 -2 26 -6 0 -3 10 8 22 10 12 13 18
5 13 -11 -6 -13 -1 -9 24 2 17 0 31 -5 31 -5 0 -4 7 3 15 9 10 9 15 1 15 -6 0
-11 4 -11 9 0 13 -63 77 -83 84 -10 4 -16 11 -13 15 9 15 -39 7 -51 -8 -9 -11
-12 -12 -13 -2 0 7 -5 10 -11 7 -5 -4 -27 1 -47 11 -40 19 -82 25 -82 11 0 -4
-5 -5 -12 -1 -7 4 -26 7 -44 6 -17 -1 -43 4 -59 12 -15 8 -36 13 -46 11 -11
-2 -19 1 -19 7 0 6 -7 5 -17 -3 -15 -12 -16 -12 -8 1 6 12 5 13 -6 3 -14 -14
-49 -18 -49 -5 0 4 -8 8 -17 9 -27 2 -52 8 -58 15 -4 3 -19 3 -35 -2 -18 -5
-32 -4 -39 3 -8 8 -11 7 -11 -2 0 -10 -3 -11 -13 -2 -8 6 -17 8 -20 4 -4 -3
-13 0 -22 7 -9 7 -18 10 -22 6 -3 -3 -15 1 -25 11 -10 9 -18 12 -18 6 0 -6
-11 -8 -25 -5 -14 2 -32 -1 -40 -8 -12 -10 -15 -10 -15 0 0 7 -7 10 -15 6 -8
-3 -20 1 -28 8 -13 13 -77 27 -77 17 0 -9 -93 -1 -115 10 -12 6 -27 11 -35 12
-8 2 -21 7 -29 11 -11 7 -12 6 -6 -5 8 -12 6 -12 -8 0 -10 8 -17 9 -17 3 0 -6
-9 -9 -20 -7 -11 2 -20 -1 -20 -6 0 -6 -7 -3 -16 5 -8 9 -20 14 -25 11 -5 -4
-9 -1 -9 6 0 7 -3 9 -6 6 -4 -3 -16 -2 -27 4 -14 8 -18 8 -13 0 4 -6 2 -11 -3
-11 -6 0 -11 5 -11 10 0 7 -6 7 -20 0 -15 -8 -20 -8 -20 1 0 8 -5 8 -16 -2 -9
-7 -18 -9 -22 -3 -12 16 -60 37 -71 30 -6 -4 -11 -1 -11 6 0 9 -3 9 -8 2 -6
-9 -20 -10 -79 -2 -7 1 -13 5 -13 10 0 4 -15 8 -32 8 -18 0 -40 6 -50 13 -14
11 -11 17 29 52 25 22 56 50 68 61 13 12 26 19 29 17 6 -6 79 45 84 59 2 5 8
6 12 3 5 -3 18 3 29 14 11 11 22 17 25 13 3 -3 6 0 6 6 0 7 5 12 10 12 10 0
22 8 55 38 8 7 15 10 15 7 0 -4 15 3 33 17 17 13 44 30 60 37 15 8 27 18 27
23 0 5 5 6 10 3 6 -3 13 1 16 9 3 9 10 13 15 10 5 -3 9 0 9 7 0 7 3 10 6 6 4
-3 12 -1 20 6 33 30 42 35 48 30 3 -4 6 0 6 7 0 7 3 11 6 7 6 -5 15 0 49 31 8
7 15 10 15 6 0 -3 6 -1 13 5 8 6 18 7 22 3 5 -4 5 -2 2 4 -6 11 -2 14 28 25 6
2 17 9 25 16 8 7 17 12 20 11 8 -4 39 26 35 32 -2 3 6 7 18 7 12 1 23 7 25 13
2 5 8 8 13 4 5 -3 9 0 9 5 0 6 5 11 11 11 6 0 17 7 26 15 8 8 18 13 23 10 4
-3 11 2 14 11 3 8 10 12 16 9 5 -3 10 -2 10 3 0 5 16 17 35 26 19 9 37 21 40
26 3 6 21 10 39 10 18 0 47 7 64 16 23 11 36 12 51 5 15 -8 20 -7 25 5 3 8 10
12 16 9 5 -3 10 -1 10 6 0 7 3 9 7 5 4 -3 24 10 45 31 21 20 38 33 38 29 0 -5
11 3 24 17 13 14 26 24 28 21 3 -2 17 10 33 26 16 17 34 30 41 30 7 0 22 12
33 26 12 15 21 24 21 20 0 -4 7 0 16 8 8 9 22 16 30 16 8 0 13 4 10 9 -3 5 1
11 9 15 19 7 19 45 1 81 -9 17 -11 36 -7 49 5 13 2 31 -9 51 -9 17 -16 45 -15
63 1 17 -2 32 -7 32 -4 0 -8 7 -8 15 0 8 -5 15 -11 15 -5 0 -7 6 -3 12 11 17
12 48 3 48 -4 0 -6 8 -5 18 2 9 -1 20 -6 23 -14 9 -28 79 -16 79 6 0 3 12 -7
26 -10 15 -15 38 -13 55 3 15 1 26 -4 23 -5 -3 -7 6 -4 20 2 13 0 26 -5 28 -5
2 -10 15 -11 31 -1 15 -6 27 -10 27 -4 0 -8 9 -8 20 0 11 -5 20 -12 20 -9 0
-9 3 -1 11 9 9 8 19 -3 40 -8 16 -13 32 -12 36 1 4 -5 24 -14 43 -9 19 -19 53
-22 75 -3 22 -11 42 -17 44 -8 2 -7 6 2 12 11 7 11 9 1 9 -7 0 -10 5 -6 11 3
6 1 15 -5 19 -7 4 -13 13 -14 21 -2 8 -6 20 -10 27 -5 6 -4 12 2 12 6 0 4 12
-4 27 -8 15 -12 30 -9 35 3 4 1 8 -5 8 -5 0 -8 9 -6 19 2 11 -3 25 -11 32 -8
6 -14 29 -14 50 0 22 -5 39 -11 39 -7 0 -9 10 -7 25 4 17 -2 31 -18 46 -16 15
-21 27 -15 36 8 15 -4 63 -23 92 -7 11 -6 12 5 6 11 -7 12 -6 2 7 -7 8 -10 18
-6 21 3 4 1 7 -5 7 -7 0 -12 7 -12 15 0 8 -6 15 -12 16 -8 0 -9 2 -2 5 12 5 6
64 -7 64 -5 0 -9 12 -9 28 0 15 -7 37 -15 48 -8 12 -11 24 -8 28 3 3 1 6 -5 6
-6 0 -9 6 -6 14 3 8 -2 25 -10 38 -9 14 -14 27 -11 30 3 3 -1 11 -10 18 -8 7
-15 23 -15 36 0 13 -4 24 -10 24 -5 0 -7 6 -4 14 3 8 0 17 -5 21 -6 3 -9 11
-6 16 4 5 2 9 -3 9 -5 0 -15 20 -22 45 -7 25 -16 48 -21 51 -4 2 -6 11 -3 19
4 9 -1 18 -11 21 -9 4 -14 13 -11 20 3 8 0 14 -7 14 -8 0 -6 4 3 10 12 8 12
10 1 10 -11 0 -10 5 4 20 20 22 35 26 35 9z m-4444 -8 c7 -1 20 -13 29 -28 10
-16 14 -25 10 -21 -4 4 -14 0 -21 -10 -8 -10 -9 -19 -2 -23 6 -4 1 -24 -12
-53 -12 -25 -20 -52 -17 -60 3 -8 -1 -20 -9 -26 -8 -7 -14 -22 -14 -34 0 -12
-7 -32 -16 -44 -8 -12 -13 -26 -9 -31 3 -5 1 -12 -4 -15 -5 -4 -8 -18 -5 -31
2 -14 1 -25 -4 -25 -5 0 -14 -12 -20 -26 -8 -17 -9 -23 -1 -19 6 4 4 -6 -5
-23 -8 -16 -17 -45 -19 -63 -2 -19 -11 -47 -19 -64 -8 -16 -13 -36 -11 -42 3
-7 0 -13 -7 -13 -6 0 -8 -4 -5 -10 3 -5 2 -10 -2 -10 -13 0 -11 -40 2 -40 5 0
2 -5 -7 -11 -10 -5 -18 -19 -18 -29 0 -11 -5 -20 -11 -20 -8 0 -8 -5 1 -15 8
-9 8 -15 2 -15 -13 0 -27 -38 -23 -63 1 -10 -2 -24 -7 -30 -5 -7 -12 -25 -14
-42 -7 -46 -12 -58 -25 -73 -9 -9 -10 -19 -4 -30 6 -12 5 -24 -5 -36 -7 -10
-11 -23 -8 -27 3 -5 0 -9 -6 -9 -6 0 -8 -5 -5 -10 9 -14 -14 -82 -25 -75 -9 6
-5 -28 5 -45 3 -6 1 -10 -5 -10 -6 0 -9 -4 -5 -9 3 -5 0 -13 -6 -16 -5 -4 -8
-13 -5 -21 3 -8 1 -14 -5 -14 -6 0 -7 -4 -4 -10 3 -5 1 -10 -5 -10 -6 0 -8 -4
-5 -10 3 -5 0 -10 -7 -10 -7 0 -26 -20 -43 -45 -16 -24 -31 -42 -33 -40 -2 2
-18 -12 -34 -31 -24 -28 -33 -32 -45 -23 -10 9 -20 9 -40 0 -22 -10 -24 -14
-12 -22 7 -5 10 -9 5 -9 -5 0 -2 -8 6 -17 17 -20 29 -83 16 -83 -5 0 -4 -9 2
-20 6 -12 7 -20 1 -20 -6 0 -6 -11 -1 -30 5 -19 5 -28 -1 -25 -5 4 -9 -1 -9
-9 0 -9 -5 -16 -11 -16 -5 0 -7 -4 -4 -10 3 -5 1 -19 -5 -30 -8 -15 -8 -20 1
-20 16 0 2 -50 -22 -76 -10 -11 -16 -24 -12 -27 3 -4 2 -7 -4 -7 -7 0 -10 -19
-10 -45 1 -25 -2 -45 -7 -45 -5 0 -3 -7 4 -15 10 -12 10 -15 -1 -15 -11 0 -11
-2 1 -10 8 -5 11 -10 6 -10 -5 0 -3 -8 5 -17 27 -34 53 -87 38 -78 -8 5 -4 -3
9 -17 12 -13 19 -28 15 -31 -3 -4 1 -7 10 -7 9 0 17 -4 17 -10 0 -5 7 -10 16
-10 8 0 13 -3 11 -7 -3 -5 6 -16 19 -26 13 -10 24 -13 24 -7 0 7 6 8 18 1 9
-5 19 -9 22 -9 35 -2 66 -28 108 -88 7 -11 10 -13 7 -6 -11 22 1 13 24 -19 13
-18 17 -29 10 -25 -8 4 -5 0 5 -8 11 -9 16 -16 10 -16 -5 0 -2 -5 6 -10 12 -8
12 -10 1 -10 -11 0 -11 -3 -1 -15 9 -11 9 -15 1 -15 -7 0 -9 -5 -5 -12 9 -15
11 -68 2 -68 -4 0 -3 -13 2 -30 5 -17 5 -30 0 -30 -5 0 -5 -13 0 -30 5 -16 5
-30 1 -30 -12 0 0 -52 14 -67 7 -7 15 -9 19 -6 3 4 6 1 6 -5 0 -7 11 -3 24 9
20 17 23 28 19 65 -2 29 0 44 8 44 6 0 9 9 6 20 -3 11 -1 20 3 20 4 0 6 9 3
20 -3 11 0 33 5 50 8 21 8 30 0 30 -7 0 -6 5 2 15 9 11 9 15 1 15 -9 0 -9 5 0
21 7 15 8 19 0 15 -17 -11 -1 26 21 47 16 16 18 16 18 2 0 -9 3 -14 8 -12 11
7 72 -29 64 -38 -4 -4 3 -5 14 -1 15 4 24 2 28 -9 3 -8 9 -15 13 -14 4 1 11 0
16 -1 4 -1 13 -3 20 -4 6 -1 11 -8 9 -16 -2 -8 -1 -12 3 -8 7 7 86 -29 96 -45
3 -5 9 -8 13 -8 20 3 26 0 20 -10 -4 -7 -1 -10 7 -7 8 3 20 -1 27 -9 7 -7 21
-13 31 -13 9 0 27 -9 39 -20 12 -11 28 -20 37 -20 8 0 15 -5 15 -11 0 -5 5 -7
10 -4 12 7 42 -20 32 -29 -3 -4 1 -4 11 0 10 3 17 1 17 -6 0 -6 4 -9 9 -6 5 3
20 -4 35 -15 14 -11 26 -18 26 -14 0 6 15 -5 50 -37 10 -9 21 -14 23 -11 6 5
70 -37 75 -50 2 -4 8 -5 13 -1 5 3 9 0 9 -5 0 -6 6 -11 13 -11 8 0 22 -9 32
-20 10 -11 20 -18 23 -15 2 2 19 -7 37 -20 17 -14 37 -25 43 -25 7 0 12 -4 12
-9 0 -5 10 -13 22 -17 23 -7 121 -74 126 -86 2 -5 8 -6 13 -2 5 3 9 0 9 -6 0
-6 5 -8 10 -5 6 3 10 1 10 -4 0 -6 7 -11 15 -11 8 0 15 -7 15 -16 0 -9 5 -14
12 -12 32 11 74 -76 42 -89 -7 -3 -12 -9 -9 -13 3 -5 -4 -6 -15 -3 -11 3 -27
0 -35 -7 -8 -7 -15 -9 -15 -5 0 4 -6 2 -14 -4 -14 -12 -37 -11 -46 1 -3 3 -23
-3 -45 -13 -22 -11 -48 -18 -57 -15 -10 2 -18 1 -18 -3 0 -4 -13 -6 -30 -3
-19 3 -30 0 -30 -7 0 -7 -4 -10 -9 -6 -5 3 -12 2 -15 -3 -2 -4 -24 -7 -48 -6
-24 1 -46 -3 -50 -9 -3 -6 -19 -11 -35 -12 -16 -1 -34 -5 -41 -9 -7 -4 -12 -2
-12 5 0 8 -3 9 -13 0 -8 -6 -17 -8 -21 -4 -4 4 -10 2 -14 -4 -4 -6 -20 -15
-36 -19 -23 -5 -27 -4 -21 7 8 12 6 12 -8 0 -13 -10 -17 -10 -17 -1 0 10 -3
10 -15 0 -8 -7 -15 -9 -15 -6 0 4 -7 0 -17 -9 -12 -12 -29 -16 -65 -13 -26 1
-48 -1 -48 -6 0 -5 -3 -6 -7 -3 -3 4 -11 3 -17 -2 -19 -14 -56 -20 -63 -9 -4
7 -10 6 -17 -3 -16 -21 -66 -41 -66 -28 0 8 -5 7 -15 -1 -11 -9 -15 -9 -15 -1
0 12 -49 -14 -62 -33 -4 -6 -9 -4 -13 6 -6 14 -12 13 -52 -8 -30 -15 -52 -20
-62 -15 -9 6 -23 3 -38 -6 -13 -9 -34 -13 -48 -11 -14 3 -25 2 -25 -2 0 -4 -7
-11 -16 -14 -10 -4 -13 -2 -8 7 4 6 -2 4 -13 -6 -11 -9 -31 -16 -44 -16 -31 2
-52 -3 -61 -16 -9 -13 -30 -14 -45 -2 -9 6 -13 5 -13 -3 0 -8 -3 -10 -7 -7 -3
4 -16 1 -28 -7 -12 -8 -39 -15 -61 -17 -21 -1 -44 -7 -51 -12 -7 -5 -17 -6
-23 -2 -5 3 -10 2 -10 -4 0 -6 -7 -8 -15 -4 -9 3 -24 -2 -35 -12 -10 -9 -25
-15 -32 -12 -7 2 -20 -1 -28 -9 -8 -7 -22 -14 -30 -16 -32 -7 -71 -73 -48 -80
6 -2 4 -11 -6 -21 -10 -9 -14 -21 -11 -27 3 -5 0 -10 -7 -10 -9 0 -10 -3 -2
-8 7 -4 8 -15 4 -27 -4 -11 -4 -32 1 -47 4 -16 4 -28 0 -28 -3 0 -7 -9 -7 -20
0 -11 4 -20 8 -20 4 0 5 -9 3 -20 -2 -11 1 -22 6 -25 5 -4 7 -11 4 -16 -4 -5
-1 -9 5 -9 8 0 7 -6 -1 -21 -8 -15 -8 -19 0 -15 8 5 8 0 1 -18 -6 -17 -6 -26
0 -26 6 0 10 -7 10 -15 0 -8 5 -15 12 -15 6 0 9 -3 5 -6 -3 -3 3 -15 13 -26
10 -11 16 -26 14 -33 -3 -7 2 -15 11 -19 9 -3 13 -10 10 -16 -3 -6 1 -13 10
-16 9 -4 14 -13 11 -21 -3 -8 3 -24 14 -35 11 -12 20 -32 20 -44 0 -13 5 -26
11 -29 6 -4 10 -28 9 -54 -1 -25 -1 -50 0 -56 1 -5 2 -14 1 -18 -1 -5 3 -6 9
-2 5 3 10 0 10 -8 0 -8 9 -22 20 -32 11 -10 20 -23 20 -28 0 -5 8 -16 18 -23
9 -7 12 -14 6 -14 -8 0 -5 -13 7 -36 10 -21 16 -41 13 -45 -3 -5 0 -9 5 -9 6
0 11 -8 11 -18 0 -10 3 -22 8 -26 4 -4 7 -11 8 -14 0 -4 4 -15 8 -24 4 -9 9
-23 10 -32 1 -8 10 -24 20 -34 11 -13 13 -21 6 -24 -7 -2 -3 -15 12 -33 12
-16 16 -25 8 -20 -12 7 -13 6 -3 -7 7 -8 10 -18 6 -21 -3 -4 -1 -7 6 -7 7 0
10 -4 6 -9 -3 -5 -1 -13 5 -16 6 -4 8 -15 5 -26 -4 -11 -2 -19 4 -19 6 0 10
-3 9 -7 -1 -5 3 -17 9 -29 7 -11 8 -26 3 -34 -8 -13 7 -59 23 -71 5 -3 8 -9 8
-13 -4 -31 1 -67 12 -77 7 -7 11 -25 9 -41 -5 -31 15 -88 30 -88 6 0 5 -7 -2
-15 -8 -10 -9 -15 -2 -15 6 0 9 -7 5 -15 -3 -9 2 -24 11 -34 12 -13 14 -21 6
-26 -8 -5 -8 -11 1 -21 8 -10 8 -14 0 -14 -10 0 11 -43 29 -60 9 -9 8 -40 -2
-40 -7 0 -6 -5 1 -13 6 -8 8 -17 4 -20 -3 -4 -1 -7 6 -7 9 0 12 -9 9 -25 -3
-13 -1 -22 3 -19 5 3 9 0 9 -5 0 -6 -5 -11 -11 -11 -6 0 -1 -14 11 -30 15 -21
17 -30 8 -31 -9 0 -10 -2 -1 -5 7 -3 9 -12 6 -21 -4 -11 -2 -14 5 -9 8 5 10 2
6 -9 -4 -8 1 -26 10 -40 9 -14 12 -25 7 -25 -11 0 -9 -18 6 -45 5 -11 8 -26 6
-32 -3 -7 -1 -13 4 -13 5 0 9 -9 10 -20 1 -13 -2 -18 -10 -13 -6 3 -2 -7 9
-23 24 -34 36 -64 26 -64 -4 0 -7 -19 -7 -42 0 -31 -4 -43 -15 -44 -16 -1 -80
61 -80 77 0 6 -4 7 -10 4 -5 -3 -10 2 -10 11 0 10 -3 14 -7 11 -3 -4 -17 9
-30 28 -13 19 -31 35 -39 35 -8 0 -12 5 -9 10 3 6 2 10 -4 10 -5 0 -13 9 -16
20 -3 11 -13 20 -21 20 -8 0 -12 5 -9 10 3 6 1 10 -5 10 -6 0 -8 5 -5 10 3 6
-1 10 -9 10 -9 0 -16 4 -16 10 0 5 -11 20 -25 34 -14 14 -25 28 -25 31 0 8
-103 135 -109 135 -4 0 -12 13 -19 29 -7 16 -22 31 -32 34 -12 3 -20 14 -20
25 0 12 -8 27 -19 34 -18 13 -21 18 -21 37 0 5 -9 13 -20 16 -11 3 -20 11 -20
16 0 9 -33 50 -77 96 -13 13 -23 28 -23 33 0 6 -4 10 -10 10 -5 0 -10 7 -10
15 0 8 -5 15 -10 15 -6 0 -17 15 -25 33 -8 17 -14 28 -15 22 0 -10 -27 25 -29
38 -1 7 -13 24 -42 56 -9 10 -19 30 -23 45 -4 15 -11 24 -16 21 -5 -3 -11 4
-15 15 -3 11 -11 20 -16 20 -5 0 -8 3 -7 8 3 8 -32 64 -47 74 -6 5 -4 8 5 8 9
0 11 3 5 8 -5 4 -17 16 -25 26 -13 18 -13 19 0 11 8 -4 6 3 -6 16 -30 34 -41
54 -24 44 8 -5 2 7 -13 27 -15 19 -24 38 -20 41 3 4 2 7 -4 7 -10 0 -21 26
-29 70 -2 8 -8 16 -13 18 -6 2 -11 10 -11 18 0 8 -5 14 -11 14 -8 0 -8 4 -1
13 8 9 5 24 -13 55 -15 26 -19 42 -12 43 9 0 9 2 0 6 -7 2 -13 11 -13 19 0 8
-6 14 -12 14 -10 0 -10 2 -1 8 7 5 9 13 3 21 -4 8 -6 20 -3 28 3 7 0 13 -7 13
-6 0 -10 6 -7 13 2 6 -3 21 -12 31 -13 16 -13 18 -1 11 8 -4 4 4 -10 20 -14
16 -19 25 -12 21 13 -8 17 6 5 18 -4 3 -8 16 -10 28 -2 12 -8 27 -14 35 -9 9
-8 13 0 13 8 0 4 11 -8 29 -12 16 -21 43 -21 60 0 17 -5 31 -11 31 -5 0 -8 4
-4 9 3 5 1 12 -4 16 -7 4 -7 15 -1 30 6 17 6 25 -1 25 -6 0 -8 4 -5 9 4 5 0
12 -6 14 -10 4 -9 8 2 16 13 9 12 11 -2 16 -10 4 -15 17 -14 36 1 16 -1 29 -4
29 -3 0 -6 9 -6 20 0 11 4 20 8 20 5 0 2 10 -7 23 -8 13 -12 27 -8 30 3 4 1 7
-5 7 -6 0 -10 9 -9 20 1 11 5 20 10 20 5 0 4 6 -2 13 -6 8 -8 17 -4 20 3 4 1
7 -5 7 -7 0 -12 5 -12 11 0 5 6 7 13 3 6 -4 3 3 -8 15 -16 18 -17 25 -7 42 9
14 9 19 1 19 -8 0 -8 4 0 14 7 8 8 17 3 20 -5 3 -8 15 -7 28 1 13 -3 26 -9 30
-6 5 -7 8 -1 8 6 0 8 32 5 85 -3 47 -3 85 0 85 3 0 4 28 2 62 -4 87 -4 88 -15
88 -5 0 -3 8 4 17 12 15 12 16 -1 8 -13 -8 -13 -7 -1 8 10 13 10 17 1 17 -10
0 -10 3 0 15 8 10 9 15 1 15 -7 0 -8 8 -1 25 7 17 6 25 -1 25 -8 0 -8 4 0 14
9 11 7 15 -10 19 -19 5 -20 8 -9 21 9 11 9 16 1 16 -8 0 -9 5 -2 18 6 10 6 24
1 32 -5 8 -6 19 -2 25 11 17 11 35 1 35 -6 0 -7 6 -1 16 5 9 7 26 4 36 -3 11
1 24 9 29 9 5 10 9 2 9 -6 0 -10 8 -9 18 2 9 0 29 -5 45 -4 15 -4 27 0 27 4 0
12 16 18 35 7 21 7 35 2 35 -5 0 -3 13 5 29 9 16 13 31 10 34 -3 2 -6 46 -7
96 -1 55 -5 91 -12 91 -6 0 -5 3 1 8 7 4 11 30 10 60 0 28 3 52 7 52 5 0 6 4
3 9 -4 5 -2 11 3 13 6 1 11 15 13 30 2 15 7 30 10 34 4 3 4 12 1 20 -3 8 -1
14 5 14 5 0 12 9 15 20 3 11 2 20 -2 20 -4 0 -8 7 -8 15 0 8 3 12 7 10 8 -5
33 45 26 53 -3 2 2 18 10 34 8 16 12 33 9 38 -3 6 -2 10 4 10 6 0 8 7 5 15 -4
8 -1 15 7 15 7 0 9 3 6 7 -4 3 0 15 10 25 13 14 13 18 2 18 -11 0 -11 2 1 10
8 5 12 10 7 10 -4 0 0 11 8 24 12 17 13 25 4 28 -8 3 -6 9 5 21 10 9 20 33 23
52 3 19 9 35 13 35 4 0 8 12 8 27 0 15 5 29 11 31 6 2 9 8 5 13 -3 5 0 9 6 9
6 0 8 5 5 10 -3 6 0 13 8 16 7 2 14 10 14 17 0 7 12 31 26 54 15 24 27 45 27
48 0 4 11 21 25 39 14 18 22 36 19 39 -4 4 1 9 10 13 9 3 14 10 11 14 -2 4 4
18 16 31 11 12 17 29 15 36 -3 7 1 13 10 13 8 0 12 5 9 10 -3 6 -1 10 4 10 6
0 10 3 9 8 -3 14 14 42 23 36 5 -3 6 1 3 9 -3 8 2 20 10 27 9 7 13 16 10 21
-3 5 0 9 5 9 6 0 11 7 11 15 0 8 6 15 13 15 9 0 9 2 -1 9 -11 7 -10 9 3 15 9
3 14 10 11 15 -3 5 1 12 10 15 8 3 12 10 9 16 -3 5 -1 10 5 10 6 0 8 5 5 10
-3 6 -1 10 5 10 6 0 9 4 5 10 -3 5 3 18 13 28 11 11 25 36 32 56 6 20 16 36
21 36 5 0 9 5 9 12 0 6 8 20 18 31 9 11 11 17 3 12 -7 -4 6 17 30 47 24 29 53
67 64 82 11 16 28 36 38 45 9 8 17 21 17 28 0 6 8 16 18 22 9 5 16 12 15 15
-2 3 -1 5 2 4 2 -2 21 21 41 50 20 28 41 52 46 52 5 0 7 4 4 9 -3 5 12 25 34
45 22 20 37 36 33 36 -5 0 6 9 22 20 17 11 26 20 21 20 -6 0 -1 7 10 15 10 8
15 15 9 15 -5 0 4 9 20 20 17 11 27 20 23 20 -5 0 0 8 10 18 9 11 20 17 24 15
4 -2 10 6 13 18 4 11 9 18 13 15 3 -4 13 5 22 20 10 14 20 25 24 25 3 -1 6 1
7 4 0 2 27 32 59 66 33 34 57 65 55 69 -3 5 2 11 11 14 9 4 14 9 11 12 -9 10
30 47 42 39 6 -3 11 -3 11 2 0 7 18 8 76 4z m210 -1630 c-4 -5 7 -15 24 -23
16 -7 30 -16 30 -20 0 -5 7 -8 15 -8 18 0 88 -48 130 -87 8 -7 18 -13 23 -13
5 0 30 -20 55 -44 25 -24 48 -42 51 -39 2 3 3 -20 2 -51 -1 -31 -5 -59 -9 -62
-3 -4 -2 -14 3 -23 6 -11 3 -24 -9 -40 l-18 -24 -107 72 c-58 39 -111 71 -117
71 -5 0 -7 5 -4 10 3 6 -1 10 -9 10 -9 0 -16 5 -16 10 0 6 -7 10 -15 10 -8 0
-15 3 -15 8 0 4 -18 16 -40 26 -22 11 -40 25 -40 33 0 7 -5 13 -11 13 -6 0 -9
26 -8 68 2 55 6 70 23 82 11 8 27 15 34 17 8 1 16 4 20 7 9 9 14 7 8 -3z m477
-347 c9 -4 17 -10 17 -14 0 -10 58 -70 68 -71 4 0 33 -30 65 -65 31 -35 57
-61 57 -57 0 3 9 -5 20 -18 43 -53 76 -80 84 -72 3 4 6 -1 6 -10 0 -9 8 -17
17 -17 9 0 14 -3 10 -6 -7 -8 17 -34 31 -34 6 0 9 -8 7 -17 -3 -22 -41 -20
-65 2 -9 8 -21 15 -26 15 -5 0 -16 9 -24 20 -8 11 -22 20 -31 20 -10 0 -19 3
-21 8 -1 4 -23 20 -48 37 -25 16 -49 36 -53 42 -4 7 -16 13 -25 13 -9 0 -30
11 -46 25 -16 14 -33 25 -38 25 -5 0 -7 4 -3 9 3 6 0 13 -7 18 -24 15 -58 72
-60 101 -2 33 18 66 36 57 6 -3 19 -8 29 -11z m566 -1641 c11 -12 11 -17 -4
-33 -10 -11 -20 -18 -23 -15 -2 2 -24 -9 -48 -25 -23 -17 -46 -30 -50 -30 -4
0 -16 -8 -27 -17 -15 -13 -19 -14 -13 -3 4 9 2 8 -7 -2 -8 -10 -19 -18 -26
-18 -6 0 -11 -4 -11 -10 0 -5 -6 -10 -12 -10 -7 0 -33 -14 -57 -30 -24 -17
-46 -28 -49 -25 -3 2 -13 -7 -24 -20 -11 -14 -28 -25 -39 -25 -10 0 -27 -8
-37 -17 -10 -10 -25 -19 -33 -21 -8 -2 -21 -10 -30 -18 -8 -8 -19 -14 -23 -14
-4 0 -16 -9 -28 -20 -12 -10 -24 -17 -28 -15 -4 2 -17 -7 -30 -20 -13 -13 -27
-22 -31 -19 -5 3 -9 0 -9 -6 0 -6 -4 -8 -10 -5 -5 3 -10 1 -10 -6 0 -7 -3 -10
-6 -6 -4 3 -15 -4 -25 -16 -10 -12 -18 -18 -19 -13 0 4 -16 -4 -35 -18 -19
-15 -35 -23 -35 -19 0 4 -5 0 -11 -10 -6 -9 -14 -15 -20 -12 -5 4 -9 1 -9 -4
0 -6 -5 -11 -10 -11 -6 0 -16 -5 -23 -10 -7 -6 -24 -20 -40 -31 -15 -11 -24
-25 -21 -31 4 -6 3 -8 -2 -5 -6 3 -15 -3 -22 -14 -10 -15 -10 -19 0 -19 9 0 8
-3 -2 -10 -8 -5 -10 -10 -5 -10 6 0 2 -5 -8 -11 -9 -6 -15 -14 -12 -20 4 -5 0
-9 -7 -9 -9 0 -9 -3 2 -10 8 -5 10 -10 4 -10 -6 0 -11 -6 -11 -12 -1 -7 -6
-28 -11 -46 -6 -19 -7 -30 -1 -27 5 4 9 2 9 -4 0 -5 -6 -11 -12 -14 -10 -3
-10 -7 1 -20 7 -10 10 -17 6 -17 -4 0 -2 -7 5 -14 6 -8 10 -29 8 -46 -2 -18 3
-34 10 -39 7 -4 14 -14 15 -22 2 -8 6 -20 10 -26 5 -8 3 -13 -4 -13 -8 0 -9
-3 0 -13 6 -8 8 -17 4 -20 -3 -4 -1 -7 5 -7 7 0 10 -12 8 -30 -2 -16 0 -31 3
-32 13 -6 39 -73 31 -78 -5 -3 -3 -18 5 -34 8 -16 15 -41 15 -57 0 -16 5 -29
11 -29 5 0 8 -4 4 -9 -3 -5 1 -16 9 -24 9 -8 11 -19 6 -27 -5 -8 -4 -23 3 -34
6 -12 10 -24 9 -28 -1 -5 3 -8 8 -8 7 0 7 -6 1 -19 -8 -13 -6 -23 7 -37 10
-10 18 -30 19 -44 3 -42 13 -71 23 -65 5 3 5 -7 0 -25 -5 -17 -5 -28 0 -25 4
3 11 -2 14 -11 3 -9 2 -12 -5 -8 -6 3 -5 -3 3 -15 7 -12 17 -21 22 -21 4 0 3
-7 -4 -15 -10 -12 -10 -15 1 -16 11 0 11 -2 1 -6 -10 -4 -10 -8 -1 -19 6 -8 8
-14 3 -14 -5 0 -4 -4 2 -8 7 -4 13 -23 15 -42 2 -19 9 -44 16 -55 7 -11 13
-34 13 -52 0 -17 5 -35 10 -38 6 -3 10 -24 10 -46 0 -24 7 -47 16 -56 8 -9 13
-24 11 -34 -3 -11 -1 -19 3 -19 5 0 7 -9 5 -20 -2 -11 1 -22 6 -25 5 -4 7 -11
4 -16 -4 -5 -1 -9 6 -9 10 0 10 -3 2 -11 -8 -8 -6 -21 9 -47 11 -20 18 -46 15
-59 -2 -13 2 -31 9 -40 7 -10 14 -34 14 -54 0 -20 7 -42 15 -49 8 -7 12 -16 9
-21 -3 -5 0 -9 7 -9 8 0 8 -4 -1 -15 -7 -8 -8 -15 -3 -15 5 0 10 -9 11 -20 4
-43 6 -50 13 -50 4 0 5 -9 2 -20 -3 -11 0 -26 6 -33 6 -8 8 -17 4 -20 -3 -4 0
-7 7 -7 7 0 10 -3 7 -7 -4 -3 -2 -12 4 -20 6 -7 7 -13 2 -13 -5 0 -9 -9 -9
-19 0 -11 4 -17 8 -15 10 6 22 -42 15 -60 -3 -8 3 -22 14 -32 11 -10 18 -26
16 -36 -3 -10 -1 -18 5 -18 5 0 7 -4 4 -9 -3 -4 1 -17 8 -27 10 -13 11 -23 4
-31 -7 -9 -7 -13 1 -13 6 0 11 -11 11 -24 0 -14 5 -28 10 -31 15 -9 12 -71 -5
-85 -16 -13 -75 -4 -75 12 0 6 -7 8 -15 4 -8 -3 -15 -1 -15 4 0 5 -7 6 -17 3
-11 -4 -14 -3 -9 5 6 11 -5 17 -26 13 -5 0 -8 3 -8 9 0 6 -3 9 -7 8 -12 -2
-46 13 -65 30 -10 8 -18 11 -18 7 0 -4 -9 0 -20 10 -11 10 -20 15 -20 11 0 -4
-10 2 -22 14 -12 11 -26 19 -32 17 -5 -2 -23 11 -39 27 -16 17 -30 29 -30 27
-3 -7 -87 51 -87 59 0 4 -11 11 -25 14 -14 4 -25 11 -25 16 0 5 -10 20 -22 33
-13 12 -24 29 -26 36 -1 7 -9 20 -17 28 -9 8 -13 19 -10 24 4 5 2 9 -3 9 -5 0
-12 9 -15 20 -3 11 -1 20 3 20 4 0 6 9 3 20 -3 11 -10 20 -15 20 -6 0 -4 8 3
17 10 11 10 14 2 9 -7 -4 -14 -4 -14 1 -1 4 -3 18 -4 29 -1 12 -5 26 -9 33 -4
6 -3 11 1 11 5 0 9 9 9 20 0 11 -5 20 -10 20 -5 0 -6 3 -3 7 4 3 1 13 -6 21
-10 13 -9 14 3 7 11 -6 10 -3 -2 12 -21 23 -23 44 -6 61 9 9 9 12 -1 12 -7 0
-10 3 -7 8 2 4 -4 25 -14 47 -10 22 -16 41 -12 42 12 5 6 70 -10 105 -8 18
-14 52 -13 76 1 23 -2 42 -7 42 -4 0 -8 9 -8 20 0 11 -5 20 -11 20 -8 0 -8 5
1 15 10 12 10 15 0 15 -10 0 -10 3 0 15 10 12 10 15 0 15 -9 0 -10 3 -1 14 9
10 8 16 -4 26 -8 7 -12 17 -9 22 3 5 -2 16 -12 23 -12 9 -14 14 -6 15 7 0 11
4 8 8 -2 4 -1 14 4 22 8 13 -2 39 -29 73 -12 15 -12 17 0 17 11 0 11 2 -1 10
-8 5 -10 10 -4 10 7 0 9 15 4 45 -4 25 -4 45 -1 45 3 0 0 4 -7 9 -16 9 -24 79
-10 83 5 2 0 15 -11 29 -11 15 -17 29 -13 33 3 4 0 11 -7 15 -10 7 -11 13 -2
30 8 15 9 21 1 21 -6 0 -8 5 -3 13 12 20 12 37 0 37 -7 0 -5 5 3 10 11 7 11
10 2 10 -7 0 -11 4 -8 9 3 5 0 14 -7 20 -15 12 -22 81 -8 81 4 0 8 7 8 15 0 8
-4 15 -7 15 -4 0 -7 12 -7 26 0 15 -7 30 -14 35 -8 5 -11 9 -8 9 4 0 3 16 -1
35 -4 19 -5 35 -1 35 10 0 5 64 -7 87 -7 12 -12 29 -12 37 0 9 -6 16 -12 17
-10 0 -10 2 -1 5 7 3 9 12 6 20 -3 8 0 14 6 14 7 0 8 8 1 24 -5 13 -6 27 -3
30 4 3 1 6 -6 6 -6 0 -11 6 -9 13 1 6 -2 21 -8 32 -11 23 -12 45 -1 63 5 7 3
12 -4 12 -8 0 -8 4 1 15 9 11 9 15 1 15 -7 0 -10 4 -7 8 3 4 1 25 -4 45 -5 23
-4 37 2 37 5 0 0 14 -12 30 -12 17 -16 30 -10 30 8 0 8 6 0 20 -6 11 -7 20 -1
20 5 0 6 14 1 34 -7 32 -4 38 36 77 24 24 44 39 44 35 0 -5 8 -2 17 5 14 12
16 12 8 0 -9 -16 8 -8 38 17 9 8 17 11 17 5 0 -5 7 -10 15 -10 8 0 15 4 15 9
0 4 7 8 15 8 8 0 15 5 15 11 0 6 9 9 20 6 11 -3 20 -1 20 5 0 5 4 7 9 3 5 -3
12 -1 16 5 3 5 17 10 31 10 14 0 38 7 54 15 17 9 30 13 30 9 0 -4 7 -1 15 6 8
6 19 9 24 6 5 -4 12 -2 16 4 4 6 10 8 15 5 5 -3 12 0 16 6 4 8 9 7 15 -2 7
-11 9 -11 9 -1 0 7 5 10 10 7 6 -3 10 -1 10 4 0 6 7 11 15 11 8 0 15 4 15 9 0
5 9 7 20 4 11 -3 27 0 35 7 8 6 19 9 25 5 5 -3 10 0 10 7 0 9 3 9 10 -2 5 -8
10 -10 10 -4 0 7 11 15 25 18 15 4 23 11 19 17 -4 7 1 7 15 0 16 -9 21 -9 22
1 0 10 2 10 5 1 4 -9 18 -7 55 7 27 11 49 16 49 12 0 -4 11 -7 24 -7 13 0 23
2 20 4 -8 9 52 32 73 28 13 -2 23 0 23 5 0 5 5 6 10 3 6 -4 23 0 39 8 17 8 35
11 42 6 8 -5 17 -3 21 4 6 9 8 8 8 -3 0 -13 1 -13 10 0 7 11 10 11 10 2 0 -13
4 -11 45 25 10 9 14 10 17 1 3 -8 10 -8 26 1 12 6 22 8 22 3 0 -5 7 -9 15 -9
8 0 15 3 15 7 0 4 10 5 23 3 12 -2 30 2 41 10 24 17 47 17 65 0z m2034 -92
c12 7 19 8 15 4 -13 -13 35 -33 55 -23 11 5 17 5 17 -2 0 -5 3 -9 8 -9 18 3
33 -2 28 -9 -3 -5 14 -9 36 -11 23 -1 49 -6 60 -12 10 -5 18 -7 18 -4 0 4 6 3
13 -2 6 -4 20 -6 30 -5 9 2 17 -2 17 -8 0 -6 5 -8 10 -5 6 3 10 1 10 -5 0 -6
5 -8 10 -5 6 3 10 1 10 -5 0 -7 6 -8 16 -2 18 10 66 4 59 -8 -3 -4 2 -10 10
-14 8 -3 15 -2 15 2 0 4 9 8 20 8 11 0 20 -4 20 -9 0 -4 4 -6 9 -2 5 3 16 -1
24 -9 8 -8 17 -12 21 -9 3 4 6 2 6 -3 0 -5 14 -10 31 -10 17 -1 35 -7 40 -15
7 -11 9 -11 9 -1 0 10 10 7 35 -8 19 -12 35 -18 35 -13 0 4 5 1 10 -7 9 -13
10 -13 10 0 0 12 2 12 9 2 4 -7 18 -14 29 -15 12 -1 22 -4 22 -7 0 -3 10 -7
22 -7 13 -1 24 -7 26 -13 2 -5 15 -10 28 -10 13 0 32 -4 42 -9 9 -6 29 -12 44
-15 15 -4 33 -12 41 -20 11 -11 17 -12 26 -3 8 8 11 8 11 -2 0 -7 4 -10 9 -6
5 3 13 1 16 -5 4 -6 15 -8 26 -5 10 4 19 2 19 -3 0 -5 7 -9 15 -9 8 0 15 3 15
7 0 4 7 7 15 7 8 0 15 -5 15 -11 0 -6 5 -4 10 4 6 9 10 10 10 3 0 -6 9 -10 19
-8 11 2 29 -7 42 -22 13 -15 19 -23 12 -20 -8 5 -8 1 0 -18 7 -14 18 -25 24
-25 15 0 25 -35 27 -89 0 -21 7 -45 14 -54 16 -19 22 -68 9 -84 -6 -9 -5 -13
3 -13 10 0 10 -3 0 -15 -8 -10 -9 -15 -1 -15 7 0 8 -8 1 -25 -6 -16 -6 -25 1
-25 6 0 6 -7 -1 -20 -8 -15 -8 -20 2 -20 9 0 9 -3 -2 -10 -12 -8 -12 -10 -1
-10 11 0 11 -3 1 -15 -10 -12 -10 -15 0 -15 10 0 10 -3 1 -14 -9 -11 -9 -15 1
-18 10 -4 10 -8 -1 -21 -10 -13 -10 -17 -1 -17 10 0 10 -3 0 -15 -10 -12 -10
-15 1 -15 10 -1 8 -4 -3 -11 -10 -5 -18 -19 -18 -29 0 -11 -6 -20 -12 -20 -9
0 -8 -4 2 -10 8 -5 10 -10 4 -10 -8 0 -9 -11 -4 -35 5 -23 4 -35 -3 -35 -6 0
-7 -3 -4 -7 4 -3 3 -11 -2 -17 -5 -6 -11 -22 -13 -36 -1 -14 -7 -28 -13 -32
-7 -5 -6 -8 0 -8 14 0 18 -52 4 -60 -6 -4 -11 -13 -12 -21 -2 -8 -6 -20 -10
-26 -5 -7 -4 -13 2 -13 13 0 5 -58 -11 -78 -11 -13 -11 -14 2 -7 12 7 13 6 3
-7 -7 -8 -10 -18 -6 -21 3 -4 1 -7 -5 -7 -6 0 -9 -9 -7 -20 2 -11 0 -20 -5
-20 -6 0 -6 -9 0 -24 5 -13 7 -26 5 -28 -10 -10 -35 -79 -27 -74 6 4 7 -8 2
-29 -5 -20 -4 -33 1 -29 14 9 10 -6 -6 -23 -8 -8 -13 -19 -10 -24 4 -5 3 -9
-2 -9 -4 0 -7 -20 -5 -45 2 -26 -1 -52 -8 -60 -6 -8 -9 -18 -6 -24 3 -5 1 -11
-5 -13 -13 -4 -20 -58 -6 -58 5 0 4 -7 -3 -15 -8 -9 -8 -15 -2 -15 6 0 4 -13
-5 -31 -9 -17 -18 -51 -21 -75 -2 -24 -9 -44 -14 -44 -6 0 -8 -17 -6 -39 2
-22 -2 -43 -9 -50 -7 -6 -13 -21 -13 -31 0 -11 -4 -20 -9 -20 -4 0 -6 -11 -3
-25 3 -16 0 -25 -9 -25 -7 0 -9 -3 -6 -6 3 -4 2 -15 -3 -25 -7 -12 -7 -20 1
-24 7 -5 5 -14 -5 -29 -8 -13 -18 -41 -22 -62 -3 -21 -11 -48 -17 -59 -6 -11
-10 -34 -9 -52 2 -17 -4 -38 -13 -47 -9 -9 -13 -16 -9 -16 3 0 1 -7 -6 -15 -8
-9 -8 -15 -2 -15 6 0 4 -12 -4 -30 -9 -16 -20 -30 -25 -30 -5 0 -9 -7 -9 -16
0 -8 -4 -13 -9 -10 -7 5 -20 -3 -68 -44 -7 -5 -17 -10 -23 -10 -5 0 -10 -7
-10 -15 0 -8 -4 -15 -10 -15 -20 0 -25 -3 -46 -31 -11 -16 -24 -26 -27 -22 -4
3 -7 0 -7 -8 0 -12 -2 -12 -9 0 -8 12 -12 12 -25 2 -9 -8 -16 -11 -16 -7 0 4
-13 0 -30 -9 -21 -11 -30 -12 -30 -4 0 7 -9 4 -21 -7 -12 -10 -24 -18 -28 -17
-19 8 -71 -25 -71 -44 0 -5 -11 -19 -24 -30 -22 -20 -25 -20 -32 -5 -10 24
-11 92 -1 92 5 0 6 4 2 9 -3 5 -1 12 5 16 5 3 10 21 10 40 0 43 9 67 23 58 6
-3 7 -1 3 5 -4 7 -4 18 1 25 10 16 10 38 0 60 -5 12 -3 17 8 17 8 0 14 3 14 8
-1 4 0 9 1 12 7 18 5 50 -3 50 -6 0 -3 8 6 18 10 10 17 24 17 30 0 7 6 12 13
12 8 0 7 4 -3 10 -9 6 -10 10 -3 10 8 0 9 9 3 30 -5 19 -5 28 1 25 5 -4 9 1 9
9 0 9 4 16 9 16 5 0 7 8 4 19 -3 10 3 33 12 51 9 18 15 41 12 51 -3 11 -1 19
4 19 6 0 9 6 7 13 -1 6 3 22 10 35 9 16 10 22 1 22 -8 0 -9 4 0 13 6 8 8 17 5
20 -3 3 3 15 14 27 16 17 19 28 12 46 -6 14 -6 24 0 24 11 0 25 39 21 62 -1 9
6 29 15 43 9 14 18 40 20 58 4 42 8 59 18 76 5 8 4 16 -3 21 -9 5 -8 10 4 20
8 7 15 19 15 26 0 8 4 14 10 14 6 0 6 9 0 24 -6 18 -5 28 4 36 16 12 29 53 15
45 -5 -4 -4 4 1 17 6 13 13 31 16 41 4 9 9 17 13 17 4 0 7 9 7 20 0 11 -5 20
-10 20 -5 0 -2 8 7 18 9 10 16 26 16 37 -1 27 5 46 19 72 7 12 12 37 12 57 0
19 5 38 11 42 6 3 9 17 6 30 -2 13 0 24 6 24 6 0 8 3 4 6 -3 3 3 21 14 40 11
20 14 34 8 34 -8 0 -8 4 0 13 6 8 8 17 5 20 -3 3 -2 12 2 19 5 7 9 16 10 21 1
4 2 8 4 10 7 8 7 37 -1 37 -4 0 -6 7 -3 15 4 8 10 12 15 9 5 -3 9 4 9 15 0 12
6 21 13 21 8 0 7 4 -3 10 -8 5 -10 10 -5 10 6 0 9 17 7 40 -3 25 0 40 7 40 6
0 10 13 9 30 -1 17 -6 30 -10 30 -4 0 -8 14 -8 30 0 17 -9 40 -20 52 -11 12
-20 28 -20 35 0 7 -4 13 -10 13 -5 0 -10 7 -10 15 0 8 -4 15 -8 15 -4 0 -16
14 -25 30 -10 17 -25 30 -33 30 -8 0 -12 5 -9 10 3 6 -1 10 -9 10 -9 0 -16 5
-16 11 0 5 -4 7 -10 4 -5 -3 -10 -1 -10 5 0 6 -4 8 -10 5 -5 -3 -10 -1 -10 6
0 7 -3 10 -6 6 -3 -3 -17 6 -31 21 -13 15 -22 20 -18 12 4 -8 -1 -6 -9 4 -9
11 -16 16 -16 10 0 -5 -5 -1 -11 9 -6 9 -14 15 -20 12 -5 -4 -9 -1 -9 4 0 6
-7 11 -15 11 -8 0 -15 5 -15 10 0 6 -6 10 -14 10 -8 0 -17 7 -20 16 -3 8 -10
13 -15 10 -5 -4 -11 -3 -13 1 -6 14 -79 65 -84 60 -3 -3 -14 2 -23 11 -45 42
-81 69 -86 64 -3 -3 -5 0 -5 6 0 6 -6 9 -14 6 -7 -3 -16 2 -19 10 -3 8 -21 23
-38 32 -18 9 -39 23 -47 30 -7 8 -20 14 -28 14 -8 0 -12 5 -9 10 3 6 -3 10
-15 10 -13 0 -19 4 -14 12 5 7 3 8 -5 3 -8 -4 -18 1 -27 13 -7 11 -25 23 -39
26 -14 4 -24 10 -21 15 3 4 -10 14 -29 21 -19 8 -35 17 -35 22 0 4 -7 8 -15 8
-8 0 -15 5 -15 12 0 17 34 52 38 39 3 -8 10 -7 25 0z m-1665 -346 c12 -14 26
-25 32 -25 5 0 10 -5 10 -11 0 -6 7 -18 16 -27 10 -9 12 -18 6 -20 -12 -4 18
-62 32 -62 5 0 3 -7 -4 -15 -7 -8 -8 -15 -3 -15 5 0 10 -7 10 -15 0 -8 -5 -15
-10 -15 -5 0 -4 -6 2 -13 6 -8 8 -17 4 -20 -3 -4 0 -7 8 -7 11 0 11 -2 -1 -10
-11 -7 -11 -10 -2 -10 7 0 10 -4 7 -10 -3 -5 -1 -10 5 -10 13 0 9 -42 -5 -52
-6 -5 -5 -8 3 -8 9 0 10 -5 2 -19 -6 -13 -6 -21 0 -23 11 -3 20 -98 9 -98 -8
0 -1 -48 11 -75 11 -24 18 -145 8 -145 -4 0 -3 -13 2 -30 5 -17 5 -30 0 -30
-5 0 -5 -13 0 -30 5 -17 5 -30 0 -30 -5 0 -5 -13 0 -30 5 -17 5 -30 0 -30 -5
0 -5 -13 0 -30 5 -16 6 -30 2 -30 -4 0 -7 -13 -7 -30 0 -16 5 -30 10 -30 6 0
3 -5 -5 -10 -11 -7 -11 -10 -2 -10 7 0 10 -5 7 -11 -4 -5 10 -27 31 -47 23
-22 39 -32 42 -24 2 7 7 10 11 7 5 -2 13 7 19 20 8 16 8 25 1 25 -6 0 -6 8 2
21 8 16 8 20 -1 14 -9 -6 -9 -2 -1 14 9 16 9 21 0 21 -8 0 -8 4 1 15 10 12 10
15 0 15 -10 0 -10 3 0 15 10 12 10 15 -1 15 -11 0 -11 2 1 10 11 7 11 10 2 10
-8 0 -10 5 -6 12 12 19 12 48 1 48 -5 0 -4 7 3 15 9 11 9 15 1 15 -9 0 -9 5 0
21 8 16 8 20 -1 14 -9 -6 -9 -2 -1 14 9 16 9 21 0 21 -8 0 -8 4 1 15 10 12 10
15 0 15 -10 0 -10 3 0 15 10 12 10 15 -1 15 -11 0 -11 2 1 10 11 7 11 10 2 10
-8 0 -10 5 -6 12 11 18 12 48 2 48 -4 0 -8 5 -8 11 0 5 4 8 9 5 5 -4 7 3 4 14
-3 11 1 30 10 43 8 12 18 37 21 55 4 17 12 32 17 32 6 0 7 5 3 11 -12 20 -6
62 14 104 12 24 17 46 12 55 -4 8 -5 21 -2 29 3 9 0 11 -9 6 -8 -4 -4 2 9 14
12 12 22 28 22 35 0 7 10 21 23 32 12 10 19 15 15 10 -3 -4 7 -22 23 -38 16
-17 29 -37 29 -44 0 -8 5 -14 10 -14 6 0 9 -4 8 -8 -3 -9 56 -86 85 -111 9 -9
17 -20 17 -26 0 -14 47 -18 55 -4 5 7 11 6 21 -2 8 -7 27 -9 45 -5 22 4 28 3
23 -7 -5 -6 10 6 33 28 22 22 40 42 39 45 -2 8 103 107 109 102 3 -3 5 0 5 8
0 9 3 10 13 1 8 -6 18 -7 22 -3 5 4 5 1 1 -5 -4 -7 -2 -13 3 -13 7 0 11 -39
11 -108 0 -80 4 -113 15 -128 17 -22 20 -48 4 -38 -8 5 -8 1 0 -13 6 -11 8
-22 6 -25 -3 -3 6 -10 21 -16 20 -10 24 -10 18 0 -5 8 -1 7 10 -2 16 -13 20
-12 33 5 7 11 16 30 20 43 3 12 9 22 15 22 5 0 7 4 3 9 -3 5 -1 12 5 16 6 4 8
11 5 16 -4 5 0 12 9 15 8 3 17 23 21 45 4 21 10 39 14 39 4 0 8 6 8 13 0 6 4
20 8 30 4 10 3 17 -4 17 -6 0 -2 9 9 20 14 14 19 32 18 60 -1 22 -6 40 -11 40
-5 0 -5 6 2 13 6 8 10 35 8 60 -1 26 0 47 4 47 3 0 5 10 4 23 -1 12 3 25 9 29
15 11 38 10 32 -1 -3 -5 8 -14 24 -21 17 -7 30 -17 30 -23 0 -6 3 -8 6 -5 3 4
14 -1 23 -10 29 -28 61 -52 67 -52 3 0 16 -9 28 -19 59 -53 99 -84 92 -71 -4
8 0 6 8 -4 9 -11 16 -17 16 -14 0 3 14 -7 32 -24 18 -16 53 -44 78 -61 25 -17
47 -34 48 -39 2 -4 10 -8 18 -8 9 0 12 -4 9 -10 -3 -5 -2 -10 3 -10 4 0 19
-10 32 -22 14 -13 28 -22 32 -20 8 2 12 -14 9 -31 -1 -5 3 -6 9 -2 5 3 10 2
10 -4 0 -5 9 -13 20 -16 11 -3 20 -10 20 -14 0 -11 101 -111 111 -111 5 0 9
-3 9 -7 1 -5 21 -30 46 -58 25 -27 40 -51 34 -53 -5 -2 -7 -8 -4 -13 10 -17 6
-100 -6 -114 -7 -8 -10 -24 -7 -35 3 -11 0 -20 -6 -20 -7 0 -5 -5 3 -10 8 -5
10 -10 4 -10 -6 0 -10 -10 -9 -22 1 -13 -3 -29 -9 -37 -9 -12 -8 -13 4 -6 13
8 13 7 1 -8 -10 -13 -10 -17 -1 -17 10 0 10 -3 0 -15 -10 -12 -10 -15 1 -15
10 0 10 -3 1 -12 -13 -13 -16 -32 -4 -24 4 2 8 -4 8 -14 0 -10 -4 -16 -8 -14
-4 3 0 -12 8 -32 9 -22 11 -33 4 -29 -9 6 -9 2 -1 -14 7 -11 8 -21 4 -21 -4 0
-9 -16 -10 -35 -6 -70 -8 -85 -16 -85 -4 0 -3 -10 4 -21 9 -17 8 -20 -1 -14
-10 6 -12 1 -8 -19 3 -14 1 -29 -4 -32 -6 -4 -5 -9 2 -14 9 -6 9 -13 1 -29 -9
-16 -9 -21 0 -21 8 0 8 -4 1 -12 -5 -7 -8 -23 -6 -35 2 -13 -1 -23 -7 -23 -5
0 -7 -4 -4 -10 3 -5 2 -10 -4 -10 -5 0 -8 -23 -7 -51 1 -29 -4 -62 -10 -75 -7
-12 -10 -25 -6 -28 3 -3 1 -6 -5 -6 -6 0 -7 -19 -3 -49 5 -41 3 -50 -13 -61
-14 -8 -16 -15 -8 -23 15 -15 14 -30 -1 -21 -8 5 -9 0 -6 -14 4 -12 2 -20 -3
-16 -5 3 -9 0 -9 -5 0 -6 5 -11 11 -11 12 0 2 -63 -12 -68 -4 -2 -6 -9 -3 -17
3 -7 0 -16 -6 -20 -8 -5 -8 -11 1 -21 9 -11 8 -14 -2 -14 -10 0 -10 -3 -1 -12
7 -7 8 -17 1 -30 -5 -10 -7 -18 -3 -18 3 0 1 -6 -5 -13 -6 -8 -8 -17 -4 -20 3
-4 2 -7 -3 -7 -15 0 -17 -72 -2 -81 11 -7 11 -9 0 -9 -7 0 -10 -4 -7 -10 3 -5
2 -10 -3 -10 -9 0 -10 -1 -18 -72 -3 -27 -10 -48 -15 -48 -4 0 -5 -7 -2 -17 4
-10 2 -14 -5 -9 -7 4 -10 -4 -10 -23 1 -19 5 -28 12 -25 6 3 4 0 -5 -8 -23
-19 -42 -58 -29 -58 8 0 8 -6 0 -20 -8 -15 -8 -20 2 -20 8 0 6 -5 -4 -11 -10
-5 -18 -17 -18 -24 0 -8 -6 -15 -12 -15 -9 0 -8 -4 2 -10 9 -6 11 -10 3 -10
-7 0 -10 -6 -7 -13 7 -19 -35 -69 -52 -63 -8 3 -14 1 -14 -5 0 -6 -4 -7 -10
-4 -5 3 -10 2 -10 -4 0 -5 -11 -8 -25 -6 -14 1 -25 -2 -25 -6 0 -5 -5 -9 -11
-9 -5 0 -7 5 -3 11 3 6 -8 3 -26 -6 -18 -9 -43 -15 -56 -12 -13 2 -24 1 -24
-2 0 -4 -8 -7 -17 -8 -35 -2 -78 -14 -92 -26 -12 -10 -13 -9 -6 3 8 13 7 13
-8 1 -11 -9 -17 -10 -17 -2 0 8 -8 6 -23 -4 -13 -8 -27 -12 -30 -8 -4 3 -7 2
-7 -4 0 -13 -32 -12 -42 2 -5 6 -8 4 -8 -5 0 -13 -1 -13 -11 0 -8 11 -12 12
-16 3 -2 -7 -11 -13 -19 -13 -8 0 -23 -6 -34 -12 -17 -11 -22 -10 -30 2 -8 12
-10 12 -10 1 0 -9 -8 -12 -25 -9 -14 3 -25 2 -25 -2 0 -8 -14 -11 -65 -13 -19
-1 -35 -5 -35 -9 0 -3 -9 -4 -20 -1 -11 3 -28 -1 -37 -8 -13 -11 -15 -11 -9
-1 7 11 4 11 -12 1 -12 -7 -18 -18 -14 -24 3 -5 -1 -4 -10 3 -11 9 -18 10 -23
2 -4 -7 -12 -7 -26 0 -14 8 -19 7 -19 -2 0 -10 -2 -10 -9 1 -6 9 -10 10 -16 2
-5 -9 -10 -9 -20 -1 -9 8 -15 8 -20 0 -4 -6 -12 -7 -23 -1 -10 6 -23 6 -34 0
-10 -5 -18 -6 -18 -1 0 5 -7 9 -15 9 -8 0 -15 -4 -15 -8 0 -4 -13 -4 -28 1
-16 4 -36 4 -45 -2 -10 -5 -17 -5 -17 0 0 5 -7 9 -15 9 -8 0 -15 -4 -15 -8 0
-4 -13 -4 -29 1 -19 5 -33 4 -40 -3 -7 -7 -11 -7 -11 -1 0 6 -7 11 -15 11 -8
0 -12 -4 -8 -9 3 -6 -29 -8 -76 -6 -45 2 -81 1 -81 -2 0 -7 -89 -2 -107 5 -7
2 -13 0 -13 -6 0 -6 -7 -6 -20 1 -11 6 -20 7 -20 2 0 -11 -50 -3 -67 11 -7 5
-13 5 -13 0 0 -5 -9 -9 -20 -9 -11 0 -20 4 -20 8 0 5 -9 4 -20 -2 -14 -8 -20
-8 -20 0 0 6 -4 9 -9 5 -5 -3 -16 2 -24 10 -10 10 -35 15 -69 15 -30 0 -59 5
-64 10 -6 6 -34 11 -62 12 -29 2 -52 6 -52 10 0 4 -13 8 -30 8 -16 0 -30 5
-30 10 0 6 -3 9 -7 9 -28 -4 -40 3 -40 25 0 13 -6 41 -14 62 -17 49 -17 56 -6
72 6 8 5 12 -3 12 -8 0 -10 3 -7 6 3 4 0 16 -8 28 -8 11 -15 40 -15 64 0 24
-7 57 -16 74 -11 21 -12 34 -5 41 7 7 7 16 0 29 -5 10 -7 18 -4 18 4 0 -1 7
-9 16 -9 8 -14 20 -11 25 4 5 1 9 -6 9 -8 0 -7 5 2 17 12 14 12 16 0 9 -11 -7
-11 -5 -3 9 9 18 -1 51 -20 65 -8 6 -6 30 5 48 5 7 4 12 -2 12 -6 0 -11 5 -11
11 0 5 6 7 13 3 6 -4 2 3 -10 15 -18 17 -23 33 -23 76 0 32 -4 55 -11 55 -5 0
-7 5 -4 10 3 6 2 10 -4 10 -9 0 -7 52 3 69 3 5 -1 14 -10 21 -12 11 -12 15 -2
21 10 7 10 9 1 9 -7 0 -13 9 -13 20 0 11 -4 20 -9 20 -10 0 -9 25 1 35 3 4 2
20 -2 36 -5 16 -5 29 -1 29 4 0 8 7 8 15 0 8 -4 15 -9 15 -5 0 -5 7 0 16 9 16
1 56 -19 96 -13 25 -11 72 3 86 9 9 9 12 -3 12 -12 0 -12 2 1 10 12 8 12 10 1
10 -10 0 -11 3 -2 14 8 10 9 16 1 21 -6 3 -8 11 -5 16 4 5 0 9 -7 9 -11 0 -11
2 0 9 11 6 10 11 -3 25 -9 9 -13 16 -9 16 3 0 1 7 -6 15 -7 8 -8 15 -3 15 5 0
6 26 3 60 -3 33 -3 60 0 60 3 0 5 14 5 30 0 17 -4 30 -8 30 -5 0 -5 5 -2 10 3
6 1 10 -6 10 -7 0 -10 3 -6 6 3 3 -1 26 -8 50 -10 34 -11 47 -2 56 14 12 10
85 -5 94 -5 3 -4 11 3 20 9 11 9 14 0 14 -7 0 -9 5 -6 10 4 6 1 17 -5 25 -6 8
-9 19 -5 25 3 5 1 10 -6 10 -8 0 -8 4 1 15 10 12 10 15 -1 15 -10 0 -10 3 -1
12 15 15 16 32 1 22 -8 -4 -8 0 0 15 9 16 9 21 0 21 -8 0 -8 4 1 15 10 12 10
15 0 15 -10 0 -10 3 0 15 10 12 10 15 0 15 -10 0 -10 3 0 15 9 11 9 15 1 15
-13 0 13 70 30 81 5 3 11 15 12 27 0 11 4 19 7 18 3 -2 15 7 28 20 12 13 20
24 16 24 -4 0 18 18 49 41 32 22 57 45 57 50 0 6 5 7 10 4 6 -3 10 -2 10 4 0
5 9 13 20 16 12 4 17 11 14 18 -4 7 -4 9 1 5 8 -8 48 18 99 62 16 14 32 24 37
22 5 -1 9 3 9 8 0 6 11 15 25 22 13 6 22 15 19 19 -3 5 0 9 6 9 18 0 60 36 52
45 -4 5 -2 5 4 2 7 -4 17 0 24 8 7 8 19 15 27 15 8 0 11 4 8 10 -3 5 6 12 20
16 13 3 22 10 19 15 -3 5 -1 9 5 9 6 0 26 14 46 31 19 17 35 27 35 23 0 -5 5
-1 11 9 13 23 21 22 47 -8z"/>
</g>
</svg>
